SplineFontDB: 3.2
FontName: Untitled3
FullName: Untitled3
FamilyName: Untitled3
Weight: Regular
Copyright: Copyright (c) 2020, Velko Vechev
UComments: "2020-6-16: Created with FontForge (http://fontforge.org)"
Version: 001.000
ItalicAngle: 0
UnderlinePosition: -204.8
UnderlineWidth: 102.4
Ascent: 1638
Descent: 410
InvalidEm: 0
LayerCount: 2
Layer: 0 0 "Back" 1
Layer: 1 0 "Fore" 0
XUID: [1021 209 1170152279 15035877]
StyleMap: 0x0000
FSType: 0
OS2Version: 0
OS2_WeightWidthSlopeOnly: 0
OS2_UseTypoMetrics: 1
CreationTime: 1592304593
ModificationTime: 1682671469
OS2TypoAscent: 0
OS2TypoAOffset: 1
OS2TypoDescent: 0
OS2TypoDOffset: 1
OS2TypoLinegap: 184
OS2WinAscent: 0
OS2WinAOffset: 1
OS2WinDescent: 0
OS2WinDOffset: 1
HheadAscent: 0
HheadAOffset: 1
HheadDescent: 0
HheadDOffset: 1
MarkAttachClasses: 1
DEI: 91125
Encoding: UnicodeBmp
UnicodeInterp: none
NameList: AGL For New Fonts
DisplaySize: -36
AntiAlias: 1
FitToEm: 0
WinInfo: 0 24 11
BeginPrivate: 0
EndPrivate
BeginChars: 65536 175

StartChar: exclam
Encoding: 33 33 0
Width: 527
Flags: HW
LayerCount: 2
Fore
SplineSet
347 411 m 1
 180 411 l 1
 167 1456 l 1
 361 1456 l 1
 347 411 l 1
160 93 m 256
 160 123 169.166666667 148.166666667 187.5 168.5 c 128
 205.833333333 188.833333333 233 199 269 199 c 128
 305 199 332.333333333 188.833333333 351 168.5 c 128
 369.666666667 148.166666667 379 123 379 93 c 128
 379 63 369.666666667 38.1666666667 351 18.5 c 128
 332.333333333 -1.16666666667 305 -11 269 -11 c 128
 233 -11 205.833333333 -1.16666666667 187.5 18.5 c 128
 169.166666667 38.1666666667 160 63 160 93 c 256
EndSplineSet
Validated: 1
EndChar

StartChar: quotedbl
Encoding: 34 34 1
Width: 655
Flags: HW
LayerCount: 2
Fore
SplineSet
277 1400 m 1
 247 1042 l 1
 136 1042 l 1
 137 1536 l 1
 277 1536 l 1
 277 1400 l 1
547 1400 m 1
 517 1042 l 1
 406 1042 l 1
 407 1536 l 1
 547 1536 l 1
 547 1400 l 1
EndSplineSet
Validated: 1
EndChar

StartChar: numbersign
Encoding: 35 35 2
Width: 1261
Flags: HW
LayerCount: 2
Fore
SplineSet
765 410 m 1
 501 410 l 1
 421 0 l 1
 278 0 l 1
 358 410 l 1
 119 410 l 1
 119 547 l 1
 384 547 l 1
 453 901 l 1
 195 901 l 1
 195 1040 l 1
 480 1040 l 1
 562 1456 l 1
 705 1456 l 1
 623 1040 l 1
 887 1040 l 1
 969 1456 l 1
 1113 1456 l 1
 1031 1040 l 1
 1235 1040 l 1
 1235 901 l 1
 1004 901 l 1
 935 547 l 1
 1160 547 l 1
 1160 410 l 1
 909 410 l 1
 829 0 l 1
 685 0 l 1
 765 410 l 1
527 547 m 1
 791 547 l 1
 860 901 l 1
 596 901 l 1
 527 547 l 1
EndSplineSet
Validated: 1
EndChar

StartChar: dollar
Encoding: 36 36 3
Width: 1150
Flags: HW
LayerCount: 2
Fore
SplineSet
856 375 m 0
 856 436.333333333 834.5 488 791.5 530 c 128
 748.5 572 676 610 574 644 c 1
 432 687.333333333 328.5 743.833333333 263.5 813.5 c 128
 198.5 883.166666667 166 971.666666667 166 1079 c 0
 166 1188.33333333 197.833333333 1278 261.5 1348 c 128
 325.166666667 1418 412.666666667 1459.66666667 524 1473 c 1
 524 1692 l 1
 673 1692 l 1
 673 1472 l 1
 785 1456.66666667 872.166666667 1409.66666667 934.5 1331 c 128
 996.833333333 1252.33333333 1028 1144.66666667 1028 1008 c 1
 844 1008 l 1
 844 1102 821.666666667 1176.66666667 777 1232 c 128
 732.333333333 1287.33333333 672 1315 596 1315 c 0
 516.666666667 1315 456 1294.5 414 1253.5 c 128
 372 1212.5 351 1155.33333333 351 1082 c 0
 351 1014 373.166666667 959.833333333 417.5 919.5 c 128
 461.833333333 879.166666667 534.833333333 842.5 636.5 809.5 c 128
 738.166666667 776.5 817.5 740.166666667 874.5 700.5 c 128
 931.5 660.833333333 973.5 614.666666667 1000.5 562 c 128
 1027.5 509.333333333 1041 447.666666667 1041 377 c 0
 1041 264.333333333 1007.16666667 173.666666667 939.5 105 c 128
 871.833333333 36.3333333333 777 -4.33333333333 655 -17 c 1
 655 -208 l 1
 507 -208 l 1
 507 -17 l 1
 383 -5.66666666667 285.833333333 38.5 215.5 115.5 c 128
 145.166666667 192.5 110 297 110 429 c 1
 295 429 l 1
 295 336.333333333 319.333333333 265 368 215 c 128
 416.666666667 165 485.666666667 140 575 140 c 0
 662.333333333 140 731 161 781 203 c 128
 831 245 856 302.333333333 856 375 c 0
EndSplineSet
Validated: 1
EndChar

StartChar: percent
Encoding: 37 37 4
Width: 1500
Flags: HW
LayerCount: 2
Fore
SplineSet
105 1176 m 2
 105 1263.33333333 132.833333333 1335.33333333 188.5 1392 c 128
 244.166666667 1448.66666667 315.666666667 1477 403 1477 c 0
 491.666666667 1477 563.5 1448.5 618.5 1391.5 c 128
 673.5 1334.5 701 1260.66666667 701 1170 c 2
 701 1099 l 2
 701 1011 673.166666667 939.166666667 617.5 883.5 c 128
 561.833333333 827.833333333 491 800 405 800 c 0
 318.333333333 800 246.666666667 827.833333333 190 883.5 c 128
 133.333333333 939.166666667 105 1013.33333333 105 1106 c 2
 105 1176 l 2
243 1099 m 2
 243 1047 257.666666667 1004.16666667 287 970.5 c 128
 316.333333333 936.833333333 355.666666667 920 405 920 c 0
 452.333333333 920 490.5 936.333333333 519.5 969 c 128
 548.5 1001.66666667 563 1046.33333333 563 1103 c 2
 563 1176 l 2
 563 1228 548.666666667 1271 520 1305 c 128
 491.333333333 1339 452.333333333 1356 403 1356 c 128
 353.666666667 1356 314.666666667 1339 286 1305 c 128
 257.333333333 1271 243 1226.66666667 243 1172 c 2
 243 1099 l 2
814 357 m 2
 814 444.333333333 841.833333333 516.166666667 897.5 572.5 c 128
 953.166666667 628.833333333 1024.66666667 657 1112 657 c 128
 1199.33333333 657 1271 629 1327 573 c 128
 1383 517 1411 442.666666667 1411 350 c 2
 1411 279 l 2
 1411 191.666666667 1383.16666667 119.833333333 1327.5 63.5 c 128
 1271.83333333 7.16666666667 1200.66666667 -21 1114 -21 c 128
 1027.33333333 -21 955.666666667 6.83333333333 899 62.5 c 128
 842.333333333 118.166666667 814 192.333333333 814 285 c 2
 814 357 l 2
952 279 m 2
 952 226.333333333 966.666666667 183.166666667 996 149.5 c 128
 1025.33333333 115.833333333 1064.66666667 99 1114 99 c 0
 1162 99 1200.33333333 115.5 1229 148.5 c 128
 1257.66666667 181.5 1272 226.333333333 1272 283 c 2
 1272 357 l 2
 1272 409.666666667 1257.5 452.666666667 1228.5 486 c 128
 1199.5 519.333333333 1160.66666667 536 1112 536 c 0
 1064.66666667 536 1026.16666667 519.5 996.5 486.5 c 128
 966.833333333 453.5 952 409 952 353 c 2
 952 279 l 2
447 110 m 1
 342 176 l 1
 1053 1314 l 1
 1158 1248 l 1
 447 110 l 1
EndSplineSet
Validated: 1
EndChar

StartChar: ampersand
Encoding: 38 38 5
Width: 1273
Flags: HW
LayerCount: 2
Fore
SplineSet
101 391 m 0
 101 461 120.5 525.333333333 159.5 584 c 128
 198.5 642.666666667 273 711 383 789 c 1
 318.333333333 867.666666667 275 931 253 979 c 128
 231 1027 220 1074.66666667 220 1122 c 0
 220 1232.66666667 252.666666667 1319.33333333 318 1382 c 128
 383.333333333 1444.66666667 472 1476 584 1476 c 0
 684 1476 766.666666667 1446.83333333 832 1388.5 c 128
 897.333333333 1330.16666667 930 1256.66666667 930 1168 c 0
 930 1109.33333333 915.166666667 1055.16666667 885.5 1005.5 c 128
 855.833333333 955.833333333 804 903.666666667 730 849 c 2
 623 770 l 1
 947 383 l 1
 992.333333333 469.666666667 1015 566 1015 672 c 1
 1182 672 l 1
 1182 502 1141 361 1059 249 c 1
 1267 0 l 1
 1045 0 l 1
 948 115 l 1
 898.666666667 71 840.833333333 37.5 774.5 14.5 c 128
 708.166666667 -8.5 640.666666667 -20 572 -20 c 0
 430 -20 316 17.6666666667 230 93 c 128
 144 168.333333333 101 267.666666667 101 391 c 0
572 131 m 0
 670 131 759.666666667 168.333333333 841 243 c 1
 486 668 l 1
 453 644 l 2
 341.666666667 562 286 477.666666667 286 391 c 0
 286 312.333333333 311.5 249.333333333 362.5 202 c 128
 413.5 154.666666667 483.333333333 131 572 131 c 0
405 1128 m 0
 405 1064 444.333333333 984 523 888 c 1
 641 971 l 2
 686.333333333 1003 717.333333333 1033.5 734 1062.5 c 128
 750.666666667 1091.5 759 1126.66666667 759 1168 c 0
 759 1212.66666667 742.333333333 1249.83333333 709 1279.5 c 128
 675.666666667 1309.16666667 633.666666667 1324 583 1324 c 0
 528.333333333 1324 485 1305.5 453 1268.5 c 128
 421 1231.5 405 1184.66666667 405 1128 c 0
EndSplineSet
Validated: 1
EndChar

StartChar: quotesingle
Encoding: 39 39 6
Width: 357
Flags: HW
LayerCount: 2
Fore
SplineSet
253 1425 m 1
 232 1057 l 1
 103 1057 l 1
 104 1536 l 1
 253 1536 l 1
 253 1425 l 1
EndSplineSet
Validated: 1
EndChar

StartChar: parenleft
Encoding: 40 40 7
Width: 700
Flags: HW
LayerCount: 2
Fore
SplineSet
133 591 m 0
 133 741.666666667 153.166666667 886.333333333 193.5 1025 c 128
 233.833333333 1163.66666667 294 1289.66666667 374 1403 c 128
 454 1516.33333333 537 1596.33333333 623 1643 c 1
 661 1521 l 1
 563.666666667 1446.33333333 483.833333333 1332.33333333 421.5 1179 c 128
 359.166666667 1025.66666667 325 854 319 664 c 1
 318 579 l 1
 318 321.666666667 365 98.3333333333 459 -91 c 0
 515.666666667 -204.333333333 583 -293 661 -357 c 1
 623 -470 l 1
 534.333333333 -420.666666667 449.666666667 -338 369 -222 c 0
 211.666666667 4.66666666667 133 275.666666667 133 591 c 0
EndSplineSet
Validated: 1
EndChar

StartChar: parenright
Encoding: 41 41 8
Width: 712
Flags: HW
LayerCount: 2
Fore
SplineSet
567 581 m 0
 567 432.333333333 547.5 289.833333333 508.5 153.5 c 128
 469.5 17.1666666667 409.833333333 -108.666666667 329.5 -224 c 128
 249.166666667 -339.333333333 165 -421.333333333 77 -470 c 1
 38 -357 l 1
 140.666666667 -278.333333333 223.166666667 -156.166666667 285.5 9.5 c 128
 347.833333333 175.166666667 379.666666667 359 381 561 c 2
 381 593 l 2
 381 733 366.333333333 863.166666667 337 983.5 c 128
 307.666666667 1103.83333333 266.833333333 1211.66666667 214.5 1307 c 128
 162.166666667 1402.33333333 103.333333333 1476.66666667 38 1530 c 1
 77 1643 l 1
 165 1594.33333333 248.833333333 1513 328.5 1399 c 128
 408.166666667 1285 467.833333333 1159.33333333 507.5 1022 c 128
 547.166666667 884.666666667 567 737.666666667 567 581 c 0
EndSplineSet
Validated: 1
EndChar

StartChar: asterisk
Encoding: 42 42 9
Width: 882
Flags: HW
LayerCount: 2
Fore
SplineSet
330 983 m 1
 28 1073 l 1
 74 1224 l 1
 376 1112 l 1
 367 1456 l 1
 520 1456 l 1
 510 1107 l 1
 807 1217 l 1
 853 1065 l 1
 546 974 l 1
 744 703 l 1
 620 609 l 1
 434 897 l 1
 254 616 l 1
 129 707 l 1
 330 983 l 1
EndSplineSet
Validated: 1
EndChar

StartChar: plus
Encoding: 43 43 10
Width: 1161
Flags: HW
LayerCount: 2
Fore
SplineSet
670 781 m 1
 1076 781 l 1
 1076 606 l 1
 670 606 l 1
 670 146 l 1
 484 146 l 1
 484 606 l 1
 78 606 l 1
 78 781 l 1
 484 781 l 1
 484 1206 l 1
 670 1206 l 1
 670 781 l 1
EndSplineSet
Validated: 1
EndChar

StartChar: comma
Encoding: 44 44 11
Width: 402
Flags: HW
LayerCount: 2
Fore
SplineSet
134 -290 m 1
 29 -218 l 1
 91.6666666667 -130.666666667 124.333333333 -40.6666666667 127 52 c 1
 127 219 l 1
 308 219 l 1
 308 74 l 2
 308 6.66666666667 291.5 -60.6666666667 258.5 -128 c 128
 225.5 -195.333333333 184 -249.333333333 134 -290 c 1
EndSplineSet
Validated: 1
EndChar

StartChar: hyphen
Encoding: 45 45 12
Width: 565
Flags: HW
LayerCount: 2
Fore
SplineSet
525 543 m 1
 37 543 l 1
 37 694 l 1
 525 694 l 1
 525 543 l 1
EndSplineSet
Validated: 1
EndChar

StartChar: period
Encoding: 46 46 13
Width: 539
Flags: HW
LayerCount: 2
Fore
SplineSet
144 97 m 0
 144 129 153.5 155.666666667 172.5 177 c 128
 191.5 198.333333333 220 209 258 209 c 128
 296 209 324.833333333 198.333333333 344.5 177 c 128
 364.166666667 155.666666667 374 129 374 97 c 0
 374 66.3333333333 364.166666667 40.6666666667 344.5 20 c 128
 324.833333333 -0.666666666667 296 -11 258 -11 c 128
 220 -11 191.5 -0.666666666667 172.5 20 c 128
 153.5 40.6666666667 144 66.3333333333 144 97 c 0
EndSplineSet
Validated: 1
EndChar

StartChar: slash
Encoding: 47 47 14
Width: 844
Flags: HW
LayerCount: 2
Fore
SplineSet
177 -125 m 1
 18 -125 l 1
 626 1456 l 1
 784 1456 l 1
 177 -125 l 1
EndSplineSet
Validated: 1
EndChar

StartChar: zero
Encoding: 48 48 15
Width: 1150
Flags: HW
LayerCount: 2
Fore
SplineSet
1034 621 m 2
 1034 404.333333333 997 243.333333333 923 138 c 128
 849 32.6666666667 733.333333333 -20 576 -20 c 0
 420.666666667 -20 305.666666667 31.5 231 134.5 c 128
 156.333333333 237.5 117.666666667 391.333333333 115 596 c 1
 115 843 l 2
 115 1057 152 1216 226 1320 c 128
 300 1424 416 1476 574 1476 c 0
 730.666666667 1476 846 1425.83333333 920 1325.5 c 128
 994 1225.16666667 1032 1070.33333333 1034 861 c 2
 1034 621 l 2
849 874 m 2
 849 1030.66666667 827 1144.83333333 783 1216.5 c 128
 739 1288.16666667 669.333333333 1324 574 1324 c 0
 479.333333333 1324 410.333333333 1288.33333333 367 1217 c 128
 323.666666667 1145.66666667 301.333333333 1036 300 888 c 2
 300 592 l 2
 300 434.666666667 322.833333333 318.5 368.5 243.5 c 128
 414.166666667 168.5 483.333333333 131 576 131 c 0
 667.333333333 131 735.166666667 166.333333333 779.5 237 c 128
 823.833333333 307.666666667 847 419 849 571 c 2
 849 874 l 2
EndSplineSet
Validated: 1
EndChar

StartChar: one
Encoding: 49 49 16
Width: 1150
Flags: HW
LayerCount: 2
Fore
SplineSet
729 0 m 1
 543 0 l 1
 543 1233 l 1
 170 1096 l 1
 170 1264 l 1
 700 1463 l 1
 729 1463 l 1
 729 0 l 1
EndSplineSet
Validated: 1
EndChar

StartChar: two
Encoding: 50 50 17
Width: 1150
Flags: HW
LayerCount: 2
Fore
SplineSet
1075 0 m 1
 121 0 l 1
 121 133 l 1
 625 693 l 2
 699.666666667 777.666666667 751.166666667 846.5 779.5 899.5 c 128
 807.833333333 952.5 822 1007.33333333 822 1064 c 0
 822 1140 799 1202.33333333 753 1251 c 128
 707 1299.66666667 645.666666667 1324 569 1324 c 0
 477 1324 405.5 1297.83333333 354.5 1245.5 c 128
 303.5 1193.16666667 278 1120.33333333 278 1027 c 1
 93 1027 l 1
 93 1161 136.166666667 1269.33333333 222.5 1352 c 128
 308.833333333 1434.66666667 424.333333333 1476 569 1476 c 0
 704.333333333 1476 811.333333333 1440.5 890 1369.5 c 128
 968.666666667 1298.5 1008 1204 1008 1086 c 0
 1008 942.666666667 916.666666667 772 734 574 c 2
 344 151 l 1
 1075 151 l 1
 1075 0 l 1
EndSplineSet
Validated: 1
EndChar

StartChar: three
Encoding: 51 51 18
Width: 1150
Flags: HW
LayerCount: 2
Fore
SplineSet
390 818 m 1
 529 818 l 2
 616.333333333 819.333333333 685 842.333333333 735 887 c 128
 785 931.666666667 810 992 810 1068 c 0
 810 1238.66666667 725 1324 555 1324 c 0
 475 1324 411.166666667 1301.16666667 363.5 1255.5 c 128
 315.833333333 1209.83333333 292 1149.33333333 292 1074 c 1
 107 1074 l 1
 107 1189.33333333 149.166666667 1285.16666667 233.5 1361.5 c 128
 317.833333333 1437.83333333 425 1476 555 1476 c 0
 692.333333333 1476 800 1439.66666667 878 1367 c 128
 956 1294.33333333 995 1193.33333333 995 1064 c 0
 995 1000.66666667 974.5 939.333333333 933.5 880 c 128
 892.5 820.666666667 836.666666667 776.333333333 766 747 c 1
 846 721.666666667 907.833333333 679.666666667 951.5 621 c 128
 995.166666667 562.333333333 1017 490.666666667 1017 406 c 0
 1017 275.333333333 974.333333333 171.666666667 889 95 c 128
 803.666666667 18.3333333333 692.666666667 -20 556 -20 c 128
 419.333333333 -20 308.166666667 17 222.5 91 c 128
 136.833333333 165 94 262.666666667 94 384 c 1
 280 384 l 1
 280 307.333333333 305 246 355 200 c 128
 405 154 472 131 556 131 c 0
 645.333333333 131 713.666666667 154.333333333 761 201 c 128
 808.333333333 247.666666667 832 314.666666667 832 402 c 0
 832 486.666666667 806 551.666666667 754 597 c 128
 702 642.333333333 627 665.666666667 529 667 c 2
 390 667 l 1
 390 818 l 1
EndSplineSet
Validated: 1
EndChar

StartChar: four
Encoding: 52 52 19
Width: 1150
Flags: HW
LayerCount: 2
Fore
SplineSet
902 489 m 1
 1104 489 l 1
 1104 338 l 1
 902 338 l 1
 902 0 l 1
 716 0 l 1
 716 338 l 1
 53 338 l 1
 53 447 l 1
 705 1456 l 1
 902 1456 l 1
 902 489 l 1
263 489 m 1
 716 489 l 1
 716 1203 l 1
 694 1163 l 1
 263 489 l 1
EndSplineSet
Validated: 1
EndChar

StartChar: five
Encoding: 53 53 20
Width: 1150
Flags: HW
LayerCount: 2
Fore
SplineSet
206 730 m 1
 280 1456 l 1
 1026 1456 l 1
 1026 1285 l 1
 437 1285 l 1
 393 888 l 1
 464.333333333 930 545.333333333 951 636 951 c 0
 768.666666667 951 874 907.166666667 952 819.5 c 128
 1030 731.833333333 1069 613.333333333 1069 464 c 0
 1069 314 1028.5 195.833333333 947.5 109.5 c 128
 866.5 23.1666666667 753.333333333 -20 608 -20 c 0
 479.333333333 -20 374.333333333 15.6666666667 293 87 c 128
 211.666666667 158.333333333 165.333333333 257 154 383 c 1
 329 383 l 1
 340.333333333 299.666666667 370 236.833333333 418 194.5 c 128
 466 152.166666667 529.333333333 131 608 131 c 0
 694 131 761.5 160.333333333 810.5 219 c 128
 859.5 277.666666667 884 358.666666667 884 462 c 0
 884 559.333333333 857.5 637.5 804.5 696.5 c 128
 751.5 755.5 681 785 593 785 c 0
 512.333333333 785 449 767.333333333 403 732 c 2
 354 692 l 1
 206 730 l 1
EndSplineSet
Validated: 1
EndChar

StartChar: six
Encoding: 54 54 21
Width: 1150
Flags: HW
LayerCount: 2
Fore
SplineSet
847 1457 m 1
 847 1300 l 1
 813 1300 l 1
 669 1297.33333333 554.333333333 1254.66666667 469 1172 c 128
 383.666666667 1089.33333333 334.333333333 973 321 823 c 1
 397.666666667 911 502.333333333 955 635 955 c 0
 761.666666667 955 862.833333333 910.333333333 938.5 821 c 128
 1014.16666667 731.666666667 1052 616.333333333 1052 475 c 0
 1052 325 1011.16666667 205 929.5 115 c 128
 847.833333333 25 738.333333333 -20 601 -20 c 0
 461.666666667 -20 348.666666667 33.5 262 140.5 c 128
 175.333333333 247.5 132 385.333333333 132 554 c 2
 132 625 l 2
 132 893 189.166666667 1097.83333333 303.5 1239.5 c 128
 417.833333333 1381.16666667 588 1453.66666667 814 1457 c 1
 847 1457 l 1
604 801 m 0
 540.666666667 801 482.333333333 782 429 744 c 128
 375.666666667 706 338.666666667 658.333333333 318 601 c 1
 318 533 l 2
 318 413 345 316.333333333 399 243 c 128
 453 169.666666667 520.333333333 133 601 133 c 0
 684.333333333 133 749.833333333 163.666666667 797.5 225 c 128
 845.166666667 286.333333333 869 366.666666667 869 466 c 0
 869 566 844.833333333 646.833333333 796.5 708.5 c 128
 748.166666667 770.166666667 684 801 604 801 c 0
EndSplineSet
Validated: 1
EndChar

StartChar: seven
Encoding: 55 55 22
Width: 1150
Flags: HW
LayerCount: 2
Fore
SplineSet
1061 1352 m 1
 458 0 l 1
 264 0 l 1
 865 1304 l 1
 77 1304 l 1
 77 1456 l 1
 1061 1456 l 1
 1061 1352 l 1
EndSplineSet
Validated: 1
EndChar

StartChar: eight
Encoding: 56 56 23
Width: 1150
Flags: HW
LayerCount: 2
Fore
SplineSet
1004 1076 m 0
 1004 1003.33333333 984.833333333 938.666666667 946.5 882 c 128
 908.166666667 825.333333333 856.333333333 781 791 749 c 1
 867 716.333333333 927.166666667 668.666666667 971.5 606 c 128
 1015.83333333 543.333333333 1038 472.333333333 1038 393 c 0
 1038 267 995.5 166.666666667 910.5 92 c 128
 825.5 17.3333333333 713.666666667 -20 575 -20 c 0
 435 -20 322.833333333 17.5 238.5 92.5 c 128
 154.166666667 167.5 112 267.666666667 112 393 c 0
 112 471.666666667 133.5 542.666666667 176.5 606 c 128
 219.5 669.333333333 279 717.333333333 355 750 c 1
 290.333333333 782 239.333333333 826.333333333 202 883 c 128
 164.666666667 939.666666667 146 1004 146 1076 c 0
 146 1198.66666667 185.333333333 1296 264 1368 c 128
 342.666666667 1440 446.333333333 1476 575 1476 c 0
 703 1476 806.5 1440 885.5 1368 c 128
 964.5 1296 1004 1198.66666667 1004 1076 c 0
853 397 m 0
 853 478.333333333 827.166666667 544.666666667 775.5 596 c 128
 723.833333333 647.333333333 656.333333333 673 573 673 c 128
 489.666666667 673 422.833333333 647.666666667 372.5 597 c 128
 322.166666667 546.333333333 297 479.666666667 297 397 c 128
 297 314.333333333 321.5 249.333333333 370.5 202 c 128
 419.5 154.666666667 487.666666667 131 575 131 c 0
 661.666666667 131 729.666666667 154.833333333 779 202.5 c 128
 828.333333333 250.166666667 853 315 853 397 c 0
575 1324 m 0
 502.333333333 1324 443.5 1301.5 398.5 1256.5 c 128
 353.5 1211.5 331 1150.33333333 331 1073 c 0
 331 999 353.166666667 939.166666667 397.5 893.5 c 128
 441.833333333 847.833333333 501 825 575 825 c 128
 649 825 708.166666667 847.833333333 752.5 893.5 c 128
 796.833333333 939.166666667 819 999 819 1073 c 128
 819 1147 796 1207.33333333 750 1254 c 128
 704 1300.66666667 645.666666667 1324 575 1324 c 0
EndSplineSet
Validated: 1
EndChar

StartChar: nine
Encoding: 57 57 24
Width: 1150
Flags: HW
LayerCount: 2
Fore
SplineSet
830 640 m 1
 791.333333333 594 745.166666667 557 691.5 529 c 128
 637.833333333 501 579 487 515 487 c 0
 431 487 357.833333333 507.666666667 295.5 549 c 128
 233.166666667 590.333333333 185 648.5 151 723.5 c 128
 117 798.5 100 881.333333333 100 972 c 0
 100 1069.33333333 118.5 1157 155.5 1235 c 128
 192.5 1313 245 1372.66666667 313 1414 c 128
 381 1455.33333333 460.333333333 1476 551 1476 c 0
 695 1476 808.5 1422.16666667 891.5 1314.5 c 128
 974.5 1206.83333333 1016 1060 1016 874 c 2
 1016 820 l 2
 1016 536.666666667 960 329.833333333 848 199.5 c 128
 736 69.1666666667 567 2.33333333333 341 -1 c 1
 305 -1 l 1
 305 155 l 1
 344 155 l 1
 496.666666667 157.666666667 614 197.5 696 274.5 c 128
 778 351.5 822.666666667 473.333333333 830 640 c 1
545 640 m 0
 607 640 664.166666667 659 716.5 697 c 128
 768.833333333 735 807 782 831 838 c 1
 831 912 l 2
 831 1033.33333333 804.666666667 1132 752 1208 c 128
 699.333333333 1284 632.666666667 1322 552 1322 c 0
 470.666666667 1322 405.333333333 1290.83333333 356 1228.5 c 128
 306.666666667 1166.16666667 282 1084 282 982 c 0
 282 882.666666667 305.833333333 800.833333333 353.5 736.5 c 128
 401.166666667 672.166666667 465 640 545 640 c 0
EndSplineSet
Validated: 1
EndChar

StartChar: less
Encoding: 60 60 27
Width: 1041
Flags: HW
LayerCount: 2
Fore
SplineSet
264 644 m 1
 890 391 l 1
 890 195 l 1
 72 574 l 1
 72 720 l 1
 890 1098 l 1
 890 902 l 1
 264 644 l 1
EndSplineSet
Validated: 1
EndChar

StartChar: equal
Encoding: 61 61 28
Width: 1124
Flags: HW
LayerCount: 2
Fore
SplineSet
986 814 m 1
 152 814 l 1
 152 975 l 1
 986 975 l 1
 986 814 l 1
986 399 m 1
 152 399 l 1
 152 559 l 1
 986 559 l 1
 986 399 l 1
EndSplineSet
Validated: 1
EndChar

StartChar: greater
Encoding: 62 62 29
Width: 1070
Flags: HW
LayerCount: 2
Fore
SplineSet
795 650 m 1
 134 909 l 1
 134 1099 l 1
 988 721 l 1
 988 575 l 1
 134 196 l 1
 134 388 l 1
 795 650 l 1
EndSplineSet
Validated: 1
EndChar

StartChar: question
Encoding: 63 63 30
Width: 967
Flags: HW
LayerCount: 2
Fore
SplineSet
357 410 m 1
 358.333333333 489.333333333 367.333333333 552 384 598 c 128
 400.666666667 644 434.666666667 695 486 751 c 2
 617 886 l 1
 673 949.333333333 701 1017.33333333 701 1090 c 0
 701 1160 682.666666667 1214.83333333 646 1254.5 c 128
 609.333333333 1294.16666667 556 1314 486 1314 c 0
 418 1314 363.333333333 1296 322 1260 c 128
 280.666666667 1224 260 1175.66666667 260 1115 c 1
 75 1115 l 1
 76.3333333333 1223 114.833333333 1310.16666667 190.5 1376.5 c 128
 266.166666667 1442.83333333 364.666666667 1476 486 1476 c 0
 612 1476 710.166666667 1442.16666667 780.5 1374.5 c 128
 850.833333333 1306.83333333 886 1214 886 1096 c 0
 886 979.333333333 832 864.333333333 724 751 c 1
 615 643 l 1
 566.333333333 589 542 511.333333333 542 410 c 1
 357 410 l 1
349 93 m 256
 349 123 358.166666667 148.166666667 376.5 168.5 c 128
 394.833333333 188.833333333 422 199 458 199 c 128
 494 199 521.333333333 188.833333333 540 168.5 c 128
 558.666666667 148.166666667 568 123 568 93 c 128
 568 63 558.666666667 38.1666666667 540 18.5 c 128
 521.333333333 -1.16666666667 494 -11 458 -11 c 128
 422 -11 394.833333333 -1.16666666667 376.5 18.5 c 128
 358.166666667 38.1666666667 349 63 349 93 c 256
EndSplineSet
Validated: 1
EndChar

StartChar: at
Encoding: 64 64 31
Width: 1839
Flags: HW
LayerCount: 2
Fore
SplineSet
1738 502 m 0
 1730 340.666666667 1690 213.333333333 1618 120 c 128
 1546 26.6666666667 1449.66666667 -20 1329 -20 c 0
 1204.33333333 -20 1124.33333333 36 1089 148 c 1
 1053 91.3333333333 1011.83333333 49.1666666667 965.5 21.5 c 128
 919.166666667 -6.16666666667 871.333333333 -20 822 -20 c 0
 727.333333333 -20 655.666666667 18.6666666667 607 96 c 128
 558.333333333 173.333333333 540.333333333 280.333333333 553 417 c 0
 563 527 588.166666667 625.166666667 628.5 711.5 c 128
 668.833333333 797.833333333 720.833333333 865.666666667 784.5 915 c 128
 848.166666667 964.333333333 915 989 985 989 c 0
 1039 989 1087.33333333 981.833333333 1130 967.5 c 128
 1172.66666667 953.166666667 1220.66666667 925 1274 883 c 1
 1222 329 l 2
 1209.33333333 175 1252 98 1350 98 c 0
 1425.33333333 98 1486.33333333 135.333333333 1533 210 c 128
 1579.66666667 284.666666667 1605 382 1609 502 c 0
 1621.66666667 761.333333333 1573.5 959 1464.5 1095 c 128
 1355.5 1231 1189.66666667 1299 967 1299 c 0
 833 1299 714 1265.83333333 610 1199.5 c 128
 506 1133.16666667 424 1037.33333333 364 912 c 128
 304 786.666666667 270.333333333 642 263 478 c 0
 255 312.666666667 275 169.166666667 323 47.5 c 128
 371 -74.1666666667 444.166666667 -167.166666667 542.5 -231.5 c 128
 640.833333333 -295.833333333 759.666666667 -328 899 -328 c 0
 959 -328 1019.16666667 -320.666666667 1079.5 -306 c 128
 1139.83333333 -291.333333333 1190 -272.333333333 1230 -249 c 1
 1267 -364 l 1
 1225.66666667 -390 1170.83333333 -411.333333333 1102.5 -428 c 128
 1034.16666667 -444.666666667 965 -453 895 -453 c 0
 728.333333333 -453 585 -415.5 465 -340.5 c 128
 345 -265.5 255.166666667 -157.5 195.5 -16.5 c 128
 135.833333333 124.5 110 289.333333333 118 478 c 0
 126 661.333333333 167 826.166666667 241 972.5 c 128
 315 1118.83333333 415.333333333 1231.83333333 542 1311.5 c 128
 668.666666667 1391.16666667 811.666666667 1431 971 1431 c 0
 1137 1431 1279.33333333 1393.66666667 1398 1319 c 128
 1516.66666667 1244.33333333 1605 1136.66666667 1663 996 c 128
 1721 855.333333333 1746 690.666666667 1738 502 c 0
712 417 m 0
 702.666666667 322.333333333 711.5 249.666666667 738.5 199 c 128
 765.5 148.333333333 808.333333333 123 867 123 c 0
 907 123 945.5 140 982.5 174 c 128
 1019.5 208 1050 256.666666667 1074 320 c 1
 1075 329 l 1
 1121 832 l 1
 1083.66666667 851.333333333 1043.66666667 861 1001 861 c 0
 923 861 858.5 821.333333333 807.5 742 c 128
 756.5 662.666666667 724.666666667 554.333333333 712 417 c 0
EndSplineSet
Validated: 33
EndChar

StartChar: A
Encoding: 65 65 32
Width: 1336
Flags: HW
LayerCount: 2
Fore
SplineSet
973 380 m 1
 363 380 l 1
 226 0 l 1
 28 0 l 1
 584 1456 l 1
 752 1456 l 1
 1309 0 l 1
 1112 0 l 1
 973 380 l 1
421 538 m 1
 916 538 l 1
 668 1219 l 1
 421 538 l 1
EndSplineSet
Validated: 1
EndChar

StartChar: B
Encoding: 66 66 33
Width: 1275
Flags: HW
LayerCount: 2
Fore
SplineSet
169 0 m 1
 169 1456 l 1
 645 1456 l 2
 803 1456 921.833333333 1423.33333333 1001.5 1358 c 128
 1081.16666667 1292.66666667 1121 1196 1121 1068 c 0
 1121 1000 1101.66666667 939.833333333 1063 887.5 c 128
 1024.33333333 835.166666667 971.666666667 794.666666667 905 766 c 1
 983.666666667 744 1045.83333333 702.166666667 1091.5 640.5 c 128
 1137.16666667 578.833333333 1160 505.333333333 1160 420 c 0
 1160 289.333333333 1117.66666667 186.666666667 1033 112 c 128
 948.333333333 37.3333333333 828.666666667 0 674 0 c 2
 169 0 l 1
361 681 m 1
 361 157 l 1
 678 157 l 2
 767.333333333 157 837.833333333 180.166666667 889.5 226.5 c 128
 941.166666667 272.833333333 967 336.666666667 967 418 c 0
 967 593.333333333 871.666666667 681 681 681 c 2
 361 681 l 1
361 835 m 1
 651 835 l 2
 735 835 802.166666667 856 852.5 898 c 128
 902.833333333 940 928 997 928 1069 c 0
 928 1149 904.666666667 1207.16666667 858 1243.5 c 128
 811.333333333 1279.83333333 740.333333333 1298 645 1298 c 2
 361 1298 l 1
 361 835 l 1
EndSplineSet
Validated: 1
EndChar

StartChar: C
Encoding: 67 67 34
Width: 1333
Flags: HW
LayerCount: 2
Fore
SplineSet
1240 462 m 1
 1222 308 1165.16666667 189.166666667 1069.5 105.5 c 128
 973.833333333 21.8333333333 846.666666667 -20 688 -20 c 0
 516 -20 378.166666667 41.6666666667 274.5 165 c 128
 170.833333333 288.333333333 119 453.333333333 119 660 c 2
 119 800 l 2
 119 935.333333333 143.166666667 1054.33333333 191.5 1157 c 128
 239.833333333 1259.66666667 308.333333333 1338.5 397 1393.5 c 128
 485.666666667 1448.5 588.333333333 1476 705 1476 c 0
 859.666666667 1476 983.666666667 1432.83333333 1077 1346.5 c 128
 1170.33333333 1260.16666667 1224.66666667 1140.66666667 1240 988 c 1
 1047 988 l 1
 1030.33333333 1104 994.166666667 1188 938.5 1240 c 128
 882.833333333 1292 805 1318 705 1318 c 0
 582.333333333 1318 486.166666667 1272.66666667 416.5 1182 c 128
 346.833333333 1091.33333333 312 962.333333333 312 795 c 2
 312 654 l 2
 312 496 345 370.333333333 411 277 c 128
 477 183.666666667 569.333333333 137 688 137 c 0
 794.666666667 137 876.5 161.166666667 933.5 209.5 c 128
 990.5 257.833333333 1028.33333333 342 1047 462 c 1
 1240 462 l 1
EndSplineSet
Validated: 1
EndChar

StartChar: D
Encoding: 68 68 35
Width: 1343
Flags: HW
LayerCount: 2
Fore
SplineSet
169 0 m 1
 169 1456 l 1
 580 1456 l 2
 706.666666667 1456 818.666666667 1428 916 1372 c 128
 1013.33333333 1316 1088.5 1236.33333333 1141.5 1133 c 128
 1194.5 1029.66666667 1221.33333333 911 1222 777 c 2
 1222 684 l 2
 1222 546.666666667 1195.5 426.333333333 1142.5 323 c 128
 1089.5 219.666666667 1013.83333333 140.333333333 915.5 85 c 128
 817.166666667 29.6666666667 702.666666667 1.33333333333 572 0 c 2
 169 0 l 1
361 1298 m 1
 361 157 l 1
 563 157 l 2
 711 157 826.166666667 203 908.5 295 c 128
 990.833333333 387 1032 518 1032 688 c 2
 1032 773 l 2
 1032 938.333333333 993.166666667 1066.83333333 915.5 1158.5 c 128
 837.833333333 1250.16666667 727.666666667 1296.66666667 585 1298 c 2
 361 1298 l 1
EndSplineSet
Validated: 1
EndChar

StartChar: E
Encoding: 69 69 36
Width: 1164
Flags: HW
LayerCount: 2
Fore
SplineSet
992 673 m 1
 361 673 l 1
 361 157 l 1
 1094 157 l 1
 1094 0 l 1
 169 0 l 1
 169 1456 l 1
 1084 1456 l 1
 1084 1298 l 1
 361 1298 l 1
 361 830 l 1
 992 830 l 1
 992 673 l 1
EndSplineSet
Validated: 1
EndChar

StartChar: F
Encoding: 70 70 37
Width: 1132
Flags: HW
LayerCount: 2
Fore
SplineSet
972 643 m 1
 361 643 l 1
 361 0 l 1
 169 0 l 1
 169 1456 l 1
 1071 1456 l 1
 1071 1298 l 1
 361 1298 l 1
 361 800 l 1
 972 800 l 1
 972 643 l 1
EndSplineSet
Validated: 1
EndChar

StartChar: G
Encoding: 71 71 38
Width: 1395
Flags: HW
LayerCount: 2
Fore
SplineSet
1244 191 m 1
 1194.66666667 120.333333333 1125.83333333 67.5 1037.5 32.5 c 128
 949.166666667 -2.5 846.333333333 -20 729 -20 c 0
 610.333333333 -20 505 7.83333333333 413 63.5 c 128
 321 119.166666667 249.833333333 198.333333333 199.5 301 c 128
 149.166666667 403.666666667 123.333333333 522.666666667 122 658 c 2
 122 785 l 2
 122 1004.33333333 173.166666667 1174.33333333 275.5 1295 c 128
 377.833333333 1415.66666667 521.666666667 1476 707 1476 c 0
 859 1476 981.333333333 1437.16666667 1074 1359.5 c 128
 1166.66666667 1281.83333333 1223.33333333 1171.66666667 1244 1029 c 1
 1052 1029 l 1
 1016 1221.66666667 901.333333333 1318 708 1318 c 0
 579.333333333 1318 481.833333333 1272.83333333 415.5 1182.5 c 128
 349.166666667 1092.16666667 315.666666667 961.333333333 315 790 c 2
 315 671 l 2
 315 507.666666667 352.333333333 377.833333333 427 281.5 c 128
 501.666666667 185.166666667 602.666666667 137 730 137 c 0
 802 137 865 145 919 161 c 128
 973 177 1017.66666667 204 1053 242 c 1
 1053 569 l 1
 716 569 l 1
 716 725 l 1
 1244 725 l 1
 1244 191 l 1
EndSplineSet
Validated: 1
EndChar

StartChar: H
Encoding: 72 72 39
Width: 1460
Flags: HW
LayerCount: 2
Fore
SplineSet
1288 0 m 1
 1095 0 l 1
 1095 673 l 1
 361 673 l 1
 361 0 l 1
 169 0 l 1
 169 1456 l 1
 361 1456 l 1
 361 830 l 1
 1095 830 l 1
 1095 1456 l 1
 1288 1456 l 1
 1288 0 l 1
EndSplineSet
Validated: 1
EndChar

StartChar: I
Encoding: 73 73 40
Width: 557
Flags: HW
LayerCount: 2
Fore
SplineSet
375 0 m 1
 183 0 l 1
 183 1456 l 1
 375 1456 l 1
 375 0 l 1
EndSplineSet
Validated: 1
EndChar

StartChar: J
Encoding: 74 74 41
Width: 1130
Flags: HW
LayerCount: 2
Fore
SplineSet
779 1456 m 1
 972 1456 l 1
 972 425 l 2
 972 285.666666667 930.166666667 176.666666667 846.5 98 c 128
 762.833333333 19.3333333333 651.333333333 -20 512 -20 c 0
 367.333333333 -20 254.666666667 17 174 91 c 128
 93.3333333333 165 53 268.666666667 53 402 c 1
 245 402 l 1
 245 318.666666667 267.833333333 253.666666667 313.5 207 c 128
 359.166666667 160.333333333 425.333333333 137 512 137 c 0
 591.333333333 137 655.5 162 704.5 212 c 128
 753.5 262 778.333333333 332 779 422 c 2
 779 1456 l 1
EndSplineSet
Validated: 1
EndChar

StartChar: K
Encoding: 75 75 42
Width: 1284
Flags: HW
LayerCount: 2
Fore
SplineSet
539 677 m 1
 361 492 l 1
 361 0 l 1
 169 0 l 1
 169 1456 l 1
 361 1456 l 1
 361 736 l 1
 1008 1456 l 1
 1240 1456 l 1
 667 813 l 1
 1285 0 l 1
 1055 0 l 1
 539 677 l 1
EndSplineSet
Validated: 1
EndChar

StartChar: L
Encoding: 76 76 43
Width: 1102
Flags: HW
LayerCount: 2
Fore
SplineSet
362 157 m 1
 1052 157 l 1
 1052 0 l 1
 169 0 l 1
 169 1456 l 1
 362 1456 l 1
 362 157 l 1
EndSplineSet
Validated: 1
EndChar

StartChar: M
Encoding: 77 77 44
Width: 1788
Flags: HW
LayerCount: 2
Fore
SplineSet
417 1456 m 1
 893 268 l 1
 1369 1456 l 1
 1618 1456 l 1
 1618 0 l 1
 1426 0 l 1
 1426 567 l 1
 1444 1179 l 1
 966 0 l 1
 819 0 l 1
 342 1176 l 1
 361 567 l 1
 361 0 l 1
 169 0 l 1
 169 1456 l 1
 417 1456 l 1
EndSplineSet
Validated: 1
EndChar

StartChar: N
Encoding: 78 78 45
Width: 1460
Flags: HW
LayerCount: 2
Fore
SplineSet
1288 0 m 1
 1095 0 l 1
 362 1122 l 1
 362 0 l 1
 169 0 l 1
 169 1456 l 1
 362 1456 l 1
 1097 329 l 1
 1097 1456 l 1
 1288 1456 l 1
 1288 0 l 1
EndSplineSet
Validated: 1
EndChar

StartChar: O
Encoding: 79 79 46
Width: 1408
Flags: HW
LayerCount: 2
Fore
SplineSet
1289 681 m 2
 1289 538.333333333 1265 413.833333333 1217 307.5 c 128
 1169 201.166666667 1101 120 1013 64 c 128
 925 8 822.333333333 -20 705 -20 c 0
 590.333333333 -20 488.666666667 8.16666666667 400 64.5 c 128
 311.333333333 120.833333333 242.5 201.166666667 193.5 305.5 c 128
 144.5 409.833333333 119.333333333 530.666666667 118 668 c 2
 118 773 l 2
 118 913 142.333333333 1036.66666667 191 1144 c 128
 239.666666667 1251.33333333 308.5 1333.5 397.5 1390.5 c 128
 486.5 1447.5 588.333333333 1476 703 1476 c 0
 819.666666667 1476 922.5 1447.83333333 1011.5 1391.5 c 128
 1100.5 1335.16666667 1169 1253.5 1217 1146.5 c 128
 1265 1039.5 1289 915 1289 773 c 2
 1289 681 l 2
1098 775 m 2
 1098 947.666666667 1063.33333333 1080.16666667 994 1172.5 c 128
 924.666666667 1264.83333333 827.666666667 1311 703 1311 c 0
 581.666666667 1311 486.166666667 1264.83333333 416.5 1172.5 c 128
 346.833333333 1080.16666667 311 952 309 788 c 2
 309 681 l 2
 309 513.666666667 344.166666667 382.166666667 414.5 286.5 c 128
 484.833333333 190.833333333 581.666666667 143 705 143 c 0
 829 143 925 188.166666667 993 278.5 c 128
 1061 368.833333333 1096 498.333333333 1098 667 c 2
 1098 775 l 2
EndSplineSet
Validated: 1
EndChar

StartChar: P
Encoding: 80 80 47
Width: 1292
Flags: HW
LayerCount: 2
Fore
SplineSet
361 570 m 1
 361 0 l 1
 169 0 l 1
 169 1456 l 1
 706 1456 l 2
 865.333333333 1456 990.166666667 1415.33333333 1080.5 1334 c 128
 1170.83333333 1252.66666667 1216 1145 1216 1011 c 0
 1216 869.666666667 1171.83333333 760.833333333 1083.5 684.5 c 128
 995.166666667 608.166666667 868.666666667 570 704 570 c 2
 361 570 l 1
361 727 m 1
 706 727 l 2
 808.666666667 727 887.333333333 751.166666667 942 799.5 c 128
 996.666666667 847.833333333 1024 917.666666667 1024 1009 c 0
 1024 1095.66666667 996.666666667 1165 942 1217 c 128
 887.333333333 1269 812.333333333 1296 717 1298 c 2
 361 1298 l 1
 361 727 l 1
EndSplineSet
Validated: 1
EndChar

StartChar: Q
Encoding: 81 81 48
Width: 1408
Flags: HW
LayerCount: 2
Fore
SplineSet
1281 681 m 2
 1281 540.333333333 1258.66666667 419.166666667 1214 317.5 c 128
 1169.33333333 215.833333333 1106.66666667 136.333333333 1026 79 c 1
 1286 -125 l 1
 1155 -246 l 1
 848 -2 l 1
 800 -14 749.333333333 -20 696 -20 c 0
 581.333333333 -20 479.666666667 8.16666666667 391 64.5 c 128
 302.333333333 120.833333333 233.5 201.166666667 184.5 305.5 c 128
 135.5 409.833333333 110.333333333 530.666666667 109 668 c 2
 109 773 l 2
 109 913 133.333333333 1036.66666667 182 1144 c 128
 230.666666667 1251.33333333 299.5 1333.5 388.5 1390.5 c 128
 477.5 1447.5 579.333333333 1476 694 1476 c 0
 811.333333333 1476 914.5 1447.66666667 1003.5 1391 c 128
 1092.5 1334.33333333 1161 1252.83333333 1209 1146.5 c 128
 1257 1040.16666667 1281 916 1281 774 c 2
 1281 681 l 2
1089 775 m 2
 1089 946.333333333 1054.83333333 1078.5 986.5 1171.5 c 128
 918.166666667 1264.5 820.666666667 1311 694 1311 c 0
 573.333333333 1311 478.166666667 1264.83333333 408.5 1172.5 c 128
 338.833333333 1080.16666667 303 952 301 788 c 2
 301 681 l 2
 301 514.333333333 335.833333333 383 405.5 287 c 128
 475.166666667 191 572 143 696 143 c 128
 820 143 916 188.166666667 984 278.5 c 128
 1052 368.833333333 1087 498.333333333 1089 667 c 2
 1089 775 l 2
EndSplineSet
Validated: 1
EndChar

StartChar: R
Encoding: 82 82 49
Width: 1261
Flags: HW
LayerCount: 2
Fore
SplineSet
703 589 m 1
 361 589 l 1
 361 0 l 1
 168 0 l 1
 168 1456 l 1
 650 1456 l 2
 814 1456 940.166666667 1418.66666667 1028.5 1344 c 128
 1116.83333333 1269.33333333 1161 1160.66666667 1161 1018 c 0
 1161 927.333333333 1136.5 848.333333333 1087.5 781 c 128
 1038.5 713.666666667 970.333333333 663.333333333 883 630 c 1
 1225 12 l 1
 1225 0 l 1
 1019 0 l 1
 703 589 l 1
361 746 m 1
 656 746 l 2
 751.333333333 746 827.166666667 770.666666667 883.5 820 c 128
 939.833333333 869.333333333 968 935.333333333 968 1018 c 0
 968 1108 941.166666667 1177 887.5 1225 c 128
 833.833333333 1273 756.333333333 1297.33333333 655 1298 c 2
 361 1298 l 1
 361 746 l 1
EndSplineSet
Validated: 1
EndChar

StartChar: S
Encoding: 83 83 50
Width: 1215
Flags: HW
LayerCount: 2
Fore
SplineSet
598 649 m 0
 433.333333333 696.333333333 313.5 754.5 238.5 823.5 c 128
 163.5 892.5 126 977.666666667 126 1079 c 0
 126 1193.66666667 171.833333333 1288.5 263.5 1363.5 c 128
 355.166666667 1438.5 474.333333333 1476 621 1476 c 0
 721 1476 810.166666667 1456.66666667 888.5 1418 c 128
 966.833333333 1379.33333333 1027.5 1326 1070.5 1258 c 128
 1113.5 1190 1135 1115.66666667 1135 1035 c 1
 942 1035 l 1
 942 1123 914 1192.16666667 858 1242.5 c 128
 802 1292.83333333 723 1318 621 1318 c 0
 526.333333333 1318 452.5 1297.16666667 399.5 1255.5 c 128
 346.5 1213.83333333 320 1156 320 1082 c 0
 320 1022.66666667 345.166666667 972.5 395.5 931.5 c 128
 445.833333333 890.5 531.5 853 652.5 819 c 128
 773.5 785 868.166666667 747.5 936.5 706.5 c 128
 1004.83333333 665.5 1055.5 617.666666667 1088.5 563 c 128
 1121.5 508.333333333 1138 444 1138 370 c 0
 1138 252 1092 157.5 1000 86.5 c 128
 908 15.5 785 -20 631 -20 c 0
 531 -20 437.666666667 -0.833333333333 351 37.5 c 128
 264.333333333 75.8333333333 197.5 128.333333333 150.5 195 c 128
 103.5 261.666666667 80 337.333333333 80 422 c 1
 273 422 l 1
 273 334 305.5 264.5 370.5 213.5 c 128
 435.5 162.5 522.333333333 137 631 137 c 0
 732.333333333 137 810 157.666666667 864 199 c 128
 918 240.333333333 945 296.666666667 945 368 c 128
 945 439.333333333 920 494.5 870 533.5 c 128
 820 572.5 729.333333333 611 598 649 c 0
EndSplineSet
Validated: 1
EndChar

StartChar: T
Encoding: 84 84 51
Width: 1222
Flags: HW
LayerCount: 2
Fore
SplineSet
1175 1298 m 1
 707 1298 l 1
 707 0 l 1
 516 0 l 1
 516 1298 l 1
 49 1298 l 1
 49 1456 l 1
 1175 1456 l 1
 1175 1298 l 1
EndSplineSet
Validated: 1
EndChar

StartChar: U
Encoding: 85 85 52
Width: 1328
Flags: HW
LayerCount: 2
Fore
SplineSet
1194 1456 m 1
 1194 466 l 2
 1193.33333333 328.666666667 1150.16666667 216.333333333 1064.5 129 c 128
 978.833333333 41.6666666667 862.666666667 -7.33333333333 716 -18 c 1
 665 -20 l 1
 505.666666667 -20 378.666666667 23 284 109 c 128
 189.333333333 195 141.333333333 313.333333333 140 464 c 2
 140 1456 l 1
 330 1456 l 1
 330 470 l 2
 330 364.666666667 359 282.833333333 417 224.5 c 128
 475 166.166666667 557.666666667 137 665 137 c 0
 773.666666667 137 856.833333333 166 914.5 224 c 128
 972.166666667 282 1001 363.666666667 1001 469 c 2
 1001 1456 l 1
 1194 1456 l 1
EndSplineSet
Validated: 1
EndChar

StartChar: V
Encoding: 86 86 53
Width: 1303
Flags: HW
LayerCount: 2
Fore
SplineSet
651 255 m 1
 1067 1456 l 1
 1277 1456 l 1
 737 0 l 1
 567 0 l 1
 28 1456 l 1
 237 1456 l 1
 651 255 l 1
EndSplineSet
Validated: 1
EndChar

StartChar: W
Encoding: 87 87 54
Width: 1817
Flags: HW
LayerCount: 2
Fore
SplineSet
483 459 m 1
 511 267 l 1
 552 440 l 1
 840 1456 l 1
 1002 1456 l 1
 1283 440 l 1
 1323 264 l 1
 1354 460 l 1
 1580 1456 l 1
 1773 1456 l 1
 1420 0 l 1
 1245 0 l 1
 945 1061 l 1
 922 1172 l 1
 899 1061 l 1
 588 0 l 1
 413 0 l 1
 61 1456 l 1
 253 1456 l 1
 483 459 l 1
EndSplineSet
Validated: 1
EndChar

StartChar: X
Encoding: 88 88 55
Width: 1284
Flags: HW
LayerCount: 2
Fore
SplineSet
644 898 m 1
 993 1456 l 1
 1219 1456 l 1
 759 734 l 1
 1230 0 l 1
 1002 0 l 1
 644 568 l 1
 284 0 l 1
 57 0 l 1
 529 734 l 1
 68 1456 l 1
 293 1456 l 1
 644 898 l 1
EndSplineSet
Validated: 1
EndChar

StartChar: Y
Encoding: 89 89 56
Width: 1230
Flags: HW
LayerCount: 2
Fore
SplineSet
613 725 m 1
 993 1456 l 1
 1211 1456 l 1
 709 543 l 1
 709 0 l 1
 517 0 l 1
 517 543 l 1
 15 1456 l 1
 235 1456 l 1
 613 725 l 1
EndSplineSet
Validated: 1
EndChar

StartChar: Z
Encoding: 90 90 57
Width: 1226
Flags: HW
LayerCount: 2
Fore
SplineSet
313 157 m 1
 1146 157 l 1
 1146 0 l 1
 86 0 l 1
 86 144 l 1
 884 1298 l 1
 99 1298 l 1
 99 1456 l 1
 1114 1456 l 1
 1114 1315 l 1
 313 157 l 1
EndSplineSet
Validated: 1
EndChar

StartChar: bracketleft
Encoding: 91 91 58
Width: 543
Flags: HW
LayerCount: 2
Fore
SplineSet
523 1512 m 1
 332 1512 l 1
 332 -160 l 1
 523 -160 l 1
 523 -312 l 1
 146 -312 l 1
 146 1664 l 1
 523 1664 l 1
 523 1512 l 1
EndSplineSet
Validated: 1
EndChar

StartChar: backslash
Encoding: 92 92 59
Width: 840
Flags: HW
LayerCount: 2
Fore
SplineSet
40 1456 m 1
 216 1456 l 1
 824 -125 l 1
 648 -125 l 1
 40 1456 l 1
EndSplineSet
Validated: 1
EndChar

StartChar: bracketright
Encoding: 93 93 60
Width: 543
Flags: HW
LayerCount: 2
Fore
SplineSet
9 1664 m 1
 387 1664 l 1
 387 -312 l 1
 9 -312 l 1
 9 -160 l 1
 202 -160 l 1
 202 1512 l 1
 9 1512 l 1
 9 1664 l 1
EndSplineSet
Validated: 1
EndChar

StartChar: asciicircum
Encoding: 94 94 61
Width: 856
Flags: HW
LayerCount: 2
Fore
SplineSet
426 1211 m 1
 236 729 l 1
 64 729 l 1
 363 1456 l 1
 490 1456 l 1
 788 729 l 1
 617 729 l 1
 426 1211 l 1
EndSplineSet
Validated: 1
EndChar

StartChar: underscore
Encoding: 95 95 62
Width: 924
Flags: HW
LayerCount: 2
Fore
SplineSet
920 -151 m 1
 4 -151 l 1
 4 0 l 1
 920 0 l 1
 920 -151 l 1
EndSplineSet
Validated: 1
EndChar

StartChar: grave
Encoding: 96 96 63
Width: 633
Flags: HW
LayerCount: 2
Fore
SplineSet
474 1242 m 1
 315 1242 l 1
 57 1536 l 1
 280 1536 l 1
 474 1242 l 1
EndSplineSet
Validated: 1
EndChar

StartChar: a
Encoding: 97 97 64
Width: 1114
Flags: HW
LayerCount: 2
Fore
SplineSet
808 0 m 1
 797.333333333 21.3333333333 788.666666667 59.3333333333 782 114 c 1
 696 24.6666666667 593.333333333 -20 474 -20 c 0
 367.333333333 -20 279.833333333 10.1666666667 211.5 70.5 c 128
 143.166666667 130.833333333 109 207.333333333 109 300 c 0
 109 412.666666667 151.833333333 500.166666667 237.5 562.5 c 128
 323.166666667 624.833333333 443.666666667 656 599 656 c 2
 779 656 l 1
 779 741 l 2
 779 805.666666667 759.666666667 857.166666667 721 895.5 c 128
 682.333333333 933.833333333 625.333333333 953 550 953 c 0
 484 953 428.666666667 936.333333333 384 903 c 128
 339.333333333 869.666666667 317 829.333333333 317 782 c 1
 131 782 l 1
 131 836 150.166666667 888.166666667 188.5 938.5 c 128
 226.833333333 988.833333333 278.833333333 1028.66666667 344.5 1058 c 128
 410.166666667 1087.33333333 482.333333333 1102 561 1102 c 0
 685.666666667 1102 783.333333333 1070.83333333 854 1008.5 c 128
 924.666666667 946.166666667 961.333333333 860.333333333 964 751 c 1
 964 253 l 2
 964 153.666666667 976.666666667 74.6666666667 1002 16 c 1
 1002 0 l 1
 808 0 l 1
501 141 m 0
 559 141 614 156 666 186 c 128
 718 216 755.666666667 255 779 303 c 1
 779 525 l 1
 634 525 l 2
 407.333333333 525 294 458.666666667 294 326 c 0
 294 268 313.333333333 222.666666667 352 190 c 128
 390.666666667 157.333333333 440.333333333 141 501 141 c 0
EndSplineSet
Validated: 1
EndChar

StartChar: b
Encoding: 98 98 65
Width: 1149
Flags: HW
LayerCount: 2
Fore
SplineSet
1056 529 m 2
 1056 363.666666667 1018 230.833333333 942 130.5 c 128
 866 30.1666666667 764 -20 636 -20 c 0
 499.333333333 -20 393.666666667 28.3333333333 319 125 c 1
 310 0 l 1
 140 0 l 1
 140 1536 l 1
 325 1536 l 1
 325 963 l 1
 399.666666667 1055.66666667 502.666666667 1102 634 1102 c 128
 765.333333333 1102 868.5 1052.33333333 943.5 953 c 128
 1018.5 853.666666667 1056 717.666666667 1056 545 c 2
 1056 529 l 2
871 550 m 0
 871 676 846.666666667 773.333333333 798 842 c 128
 749.333333333 910.666666667 679.333333333 945 588 945 c 0
 466 945 378.333333333 888.333333333 325 775 c 1
 325 307 l 1
 381.666666667 193.666666667 470 137 590 137 c 0
 678.666666667 137 747.666666667 171.333333333 797 240 c 128
 846.333333333 308.666666667 871 412 871 550 c 0
EndSplineSet
Validated: 1
EndChar

StartChar: c
Encoding: 99 99 66
Width: 1072
Flags: HW
LayerCount: 2
Fore
SplineSet
574 131 m 0
 640 131 697.666666667 151 747 191 c 128
 796.333333333 231 823.666666667 281 829 341 c 1
 1004 341 l 1
 1000.66666667 279 979.333333333 220 940 164 c 128
 900.666666667 108 848.166666667 63.3333333333 782.5 30 c 128
 716.833333333 -3.33333333333 647.333333333 -20 574 -20 c 0
 426.666666667 -20 309.5 29.1666666667 222.5 127.5 c 128
 135.5 225.833333333 92 360.333333333 92 531 c 2
 92 562 l 2
 92 667.333333333 111.333333333 761 150 843 c 128
 188.666666667 925 244.166666667 988.666666667 316.5 1034 c 128
 388.833333333 1079.33333333 474.333333333 1102 573 1102 c 0
 694.333333333 1102 795.166666667 1065.66666667 875.5 993 c 128
 955.833333333 920.333333333 998.666666667 826 1004 710 c 1
 829 710 l 1
 823.666666667 780 797.166666667 837.5 749.5 882.5 c 128
 701.833333333 927.5 643 950 573 950 c 0
 479 950 406.166666667 916.166666667 354.5 848.5 c 128
 302.833333333 780.833333333 277 683 277 555 c 2
 277 520 l 2
 277 395.333333333 302.666666667 299.333333333 354 232 c 128
 405.333333333 164.666666667 478.666666667 131 574 131 c 0
EndSplineSet
Validated: 1
EndChar

StartChar: d
Encoding: 100 100 67
Width: 1155
Flags: HW
LayerCount: 2
Fore
SplineSet
95 550 m 2
 95 716 134.333333333 849.5 213 950.5 c 128
 291.666666667 1051.5 394.666666667 1102 522 1102 c 0
 648.666666667 1102 749 1058.66666667 823 972 c 1
 823 1536 l 1
 1008 1536 l 1
 1008 0 l 1
 838 0 l 1
 829 116 l 1
 755 25.3333333333 652 -20 520 -20 c 0
 394.666666667 -20 292.5 31.3333333333 213.5 134 c 128
 134.5 236.666666667 95 370.666666667 95 536 c 2
 95 550 l 2
280 529 m 0
 280 406.333333333 305.333333333 310.333333333 356 241 c 128
 406.666666667 171.666666667 476.666666667 137 566 137 c 0
 683.333333333 137 769 189.666666667 823 295 c 1
 823 792 l 1
 767.666666667 894 682.666666667 945 568 945 c 0
 477.333333333 945 406.666666667 910 356 840 c 128
 305.333333333 770 280 666.333333333 280 529 c 0
EndSplineSet
Validated: 1
EndChar

StartChar: e
Encoding: 101 101 68
Width: 1085
Flags: HW
LayerCount: 2
Fore
SplineSet
589 -20 m 0
 442.333333333 -20 323 28.1666666667 231 124.5 c 128
 139 220.833333333 93 349.666666667 93 511 c 2
 93 545 l 2
 93 652.333333333 113.5 748.166666667 154.5 832.5 c 128
 195.5 916.833333333 252.833333333 982.833333333 326.5 1030.5 c 128
 400.166666667 1078.16666667 480 1102 566 1102 c 0
 706.666666667 1102 816 1055.66666667 894 963 c 128
 972 870.333333333 1011 737.666666667 1011 565 c 2
 1011 488 l 1
 278 488 l 1
 280.666666667 381.333333333 311.833333333 295.166666667 371.5 229.5 c 128
 431.166666667 163.833333333 507 131 599 131 c 0
 664.333333333 131 719.666666667 144.333333333 765 171 c 128
 810.333333333 197.666666667 850 233 884 277 c 1
 997 189 l 1
 906.333333333 49.6666666667 770.333333333 -20 589 -20 c 0
566 950 m 0
 491.333333333 950 428.666666667 922.833333333 378 868.5 c 128
 327.333333333 814.166666667 296 738 284 640 c 1
 826 640 l 1
 826 654 l 1
 820.666666667 748 795.333333333 820.833333333 750 872.5 c 128
 704.666666667 924.166666667 643.333333333 950 566 950 c 0
EndSplineSet
Validated: 1
EndChar

StartChar: f
Encoding: 102 102 69
Width: 711
Flags: HW
LayerCount: 2
Fore
SplineSet
231 0 m 1
 231 939 l 1
 60 939 l 1
 60 1082 l 1
 231 1082 l 1
 231 1193 l 2
 231 1309 262 1398.66666667 324 1462 c 128
 386 1525.33333333 473.666666667 1557 587 1557 c 0
 629.666666667 1557 672 1551.33333333 714 1540 c 1
 704 1390 l 1
 672.666666667 1396 639.333333333 1399 604 1399 c 0
 544 1399 497.666666667 1381.5 465 1346.5 c 128
 432.333333333 1311.5 416 1261.33333333 416 1196 c 2
 416 1082 l 1
 647 1082 l 1
 647 939 l 1
 416 939 l 1
 416 0 l 1
 231 0 l 1
EndSplineSet
Validated: 1
EndChar

StartChar: g
Encoding: 103 103 70
Width: 1149
Flags: HW
LayerCount: 2
Fore
SplineSet
96 550 m 0
 96 718.666666667 135 852.833333333 213 952.5 c 128
 291 1052.16666667 394.333333333 1102 523 1102 c 0
 655 1102 758 1055.33333333 832 962 c 1
 841 1082 l 1
 1010 1082 l 1
 1010 26 l 2
 1010 -114 968.5 -224.333333333 885.5 -305 c 128
 802.5 -385.666666667 691 -426 551 -426 c 0
 473 -426 396.666666667 -409.333333333 322 -376 c 128
 247.333333333 -342.666666667 190.333333333 -297 151 -239 c 1
 247 -128 l 1
 326.333333333 -226 423.333333333 -275 538 -275 c 0
 628 -275 698.166666667 -249.666666667 748.5 -199 c 128
 798.833333333 -148.333333333 824 -77 824 15 c 2
 824 108 l 1
 750 22.6666666667 649 -20 521 -20 c 0
 394.333333333 -20 291.833333333 31 213.5 133 c 128
 135.166666667 235 96 374 96 550 c 0
282 529 m 0
 282 407 307 311.166666667 357 241.5 c 128
 407 171.833333333 477 137 567 137 c 0
 683.666666667 137 769.333333333 190 824 296 c 1
 824 790 l 1
 767.333333333 893.333333333 682.333333333 945 569 945 c 0
 479 945 408.666666667 910 358 840 c 128
 307.333333333 770 282 666.333333333 282 529 c 0
EndSplineSet
Validated: 1
EndChar

StartChar: h
Encoding: 104 104 71
Width: 1128
Flags: HW
LayerCount: 2
Fore
SplineSet
325 951 m 1
 407 1051.66666667 513.666666667 1102 645 1102 c 0
 873.666666667 1102 989 973 991 715 c 2
 991 0 l 1
 806 0 l 1
 806 716 l 2
 805.333333333 794 787.5 851.666666667 752.5 889 c 128
 717.5 926.333333333 663 945 589 945 c 0
 529 945 476.333333333 929 431 897 c 128
 385.666666667 865 350.333333333 823 325 771 c 1
 325 0 l 1
 140 0 l 1
 140 1536 l 1
 325 1536 l 1
 325 951 l 1
EndSplineSet
Validated: 1
EndChar

StartChar: i
Encoding: 105 105 72
Width: 497
Flags: HW
LayerCount: 2
Fore
SplineSet
341 0 m 1
 156 0 l 1
 156 1082 l 1
 341 1082 l 1
 341 0 l 1
141 1369 m 256
 141 1399 150.166666667 1424.33333333 168.5 1445 c 128
 186.833333333 1465.66666667 214 1476 250 1476 c 128
 286 1476 313.333333333 1465.66666667 332 1445 c 128
 350.666666667 1424.33333333 360 1399 360 1369 c 128
 360 1339 350.666666667 1314 332 1294 c 128
 313.333333333 1274 286 1264 250 1264 c 128
 214 1264 186.833333333 1274 168.5 1294 c 128
 150.166666667 1314 141 1339 141 1369 c 256
EndSplineSet
Validated: 1
EndChar

StartChar: j
Encoding: 106 106 73
Width: 489
Flags: HW
LayerCount: 2
Fore
SplineSet
331 1082 m 1
 331 -125 l 2
 331 -333 236.666666667 -437 48 -437 c 0
 7.33333333333 -437 -30.3333333333 -431 -65 -419 c 1
 -65 -271 l 1
 -43.6666666667 -276.333333333 -15.6666666667 -279 19 -279 c 0
 60.3333333333 -279 91.8333333333 -267.833333333 113.5 -245.5 c 128
 135.166666667 -223.166666667 146 -184.333333333 146 -129 c 2
 146 1082 l 1
 331 1082 l 1
127 1369 m 0
 127 1398.33333333 136.166666667 1423.5 154.5 1444.5 c 128
 172.833333333 1465.5 199.666666667 1476 235 1476 c 0
 271 1476 298.333333333 1465.66666667 317 1445 c 128
 335.666666667 1424.33333333 345 1399 345 1369 c 128
 345 1339 335.666666667 1314 317 1294 c 128
 298.333333333 1274 271 1264 235 1264 c 128
 199 1264 172 1274 154 1294 c 128
 136 1314 127 1339 127 1369 c 0
EndSplineSet
Validated: 1
EndChar

StartChar: k
Encoding: 107 107 74
Width: 1038
Flags: HW
LayerCount: 2
Fore
SplineSet
442 501 m 1
 326 380 l 1
 326 0 l 1
 141 0 l 1
 141 1536 l 1
 326 1536 l 1
 326 607 l 1
 425 726 l 1
 762 1082 l 1
 987 1082 l 1
 566 630 l 1
 1036 0 l 1
 819 0 l 1
 442 501 l 1
EndSplineSet
Validated: 1
EndChar

StartChar: l
Encoding: 108 108 75
Width: 497
Flags: HW
LayerCount: 2
Fore
SplineSet
341 0 m 1
 156 0 l 1
 156 1536 l 1
 341 1536 l 1
 341 0 l 1
EndSplineSet
Validated: 1
EndChar

StartChar: m
Encoding: 109 109 76
Width: 1795
Flags: HW
LayerCount: 2
Fore
SplineSet
314 1082 m 1
 319 962 l 1
 398.333333333 1055.33333333 505.333333333 1102 640 1102 c 0
 791.333333333 1102 894.333333333 1044 949 928 c 1
 985 980 1031.83333333 1022 1089.5 1054 c 128
 1147.16666667 1086 1215.33333333 1102 1294 1102 c 0
 1531.33333333 1102 1652 976.333333333 1656 725 c 1
 1656 0 l 1
 1471 0 l 1
 1471 714 l 2
 1471 791.333333333 1453.33333333 849.166666667 1418 887.5 c 128
 1382.66666667 925.833333333 1323.33333333 945 1240 945 c 0
 1171.33333333 945 1114.33333333 924.5 1069 883.5 c 128
 1023.66666667 842.5 997.333333333 787.333333333 990 718 c 1
 990 0 l 1
 804 0 l 1
 804 709 l 2
 804 866.333333333 727 945 573 945 c 0
 451.666666667 945 368.666666667 893.333333333 324 790 c 1
 324 0 l 1
 139 0 l 1
 139 1082 l 1
 314 1082 l 1
EndSplineSet
Validated: 1
EndChar

StartChar: n
Encoding: 110 110 77
Width: 1130
Flags: HW
LayerCount: 2
Fore
SplineSet
315 1082 m 1
 321 946 l 1
 403.666666667 1050 511.666666667 1102 645 1102 c 0
 873.666666667 1102 989 973 991 715 c 2
 991 0 l 1
 806 0 l 1
 806 716 l 2
 805.333333333 794 787.5 851.666666667 752.5 889 c 128
 717.5 926.333333333 663 945 589 945 c 0
 529 945 476.333333333 929 431 897 c 128
 385.666666667 865 350.333333333 823 325 771 c 1
 325 0 l 1
 140 0 l 1
 140 1082 l 1
 315 1082 l 1
EndSplineSet
Validated: 1
EndChar

StartChar: o
Encoding: 111 111 78
Width: 1168
Flags: HW
LayerCount: 2
Fore
SplineSet
91 551 m 2
 91 657 111.833333333 752.333333333 153.5 837 c 128
 195.166666667 921.666666667 253.166666667 987 327.5 1033 c 128
 401.833333333 1079 486.666666667 1102 582 1102 c 0
 729.333333333 1102 848.5 1051 939.5 949 c 128
 1030.5 847 1076 711.333333333 1076 542 c 2
 1076 529 l 2
 1076 423.666666667 1055.83333333 329.166666667 1015.5 245.5 c 128
 975.166666667 161.833333333 917.5 96.6666666667 842.5 50 c 128
 767.5 3.33333333333 681.333333333 -20 584 -20 c 0
 437.333333333 -20 318.5 31 227.5 133 c 128
 136.5 235 91 370 91 538 c 2
 91 551 l 2
277 529 m 0
 277 409 304.833333333 312.666666667 360.5 240 c 128
 416.166666667 167.333333333 490.666666667 131 584 131 c 0
 678 131 752.666666667 167.833333333 808 241.5 c 128
 863.333333333 315.166666667 891 418.333333333 891 551 c 0
 891 669.666666667 862.833333333 765.833333333 806.5 839.5 c 128
 750.166666667 913.166666667 675.333333333 950 582 950 c 0
 490.666666667 950 417 913.666666667 361 841 c 128
 305 768.333333333 277 664.333333333 277 529 c 0
EndSplineSet
Validated: 1
EndChar

StartChar: p
Encoding: 112 112 79
Width: 1149
Flags: HW
LayerCount: 2
Fore
SplineSet
1054 529 m 2
 1054 364.333333333 1016.33333333 231.666666667 941 131 c 128
 865.666666667 30.3333333333 763.666666667 -20 635 -20 c 0
 503.666666667 -20 400.333333333 21.6666666667 325 105 c 1
 325 -416 l 1
 140 -416 l 1
 140 1082 l 1
 309 1082 l 1
 318 962 l 1
 393.333333333 1055.33333333 498 1102 632 1102 c 0
 762 1102 864.833333333 1053 940.5 955 c 128
 1016.16666667 857 1054 720.666666667 1054 546 c 2
 1054 529 l 2
869 550 m 0
 869 672 843 768.333333333 791 839 c 128
 739 909.666666667 667.666666667 945 577 945 c 0
 465 945 381 895.333333333 325 796 c 1
 325 279 l 1
 380.333333333 180.333333333 465 131 579 131 c 0
 667.666666667 131 738.166666667 166.166666667 790.5 236.5 c 128
 842.833333333 306.833333333 869 411.333333333 869 550 c 0
EndSplineSet
Validated: 1
EndChar

StartChar: q
Encoding: 113 113 80
Width: 1164
Flags: HW
LayerCount: 2
Fore
SplineSet
95 550 m 2
 95 720 134 854.5 212 953.5 c 128
 290 1052.5 394.666666667 1102 526 1102 c 0
 654 1102 755 1059 829 973 c 1
 837 1082 l 1
 1007 1082 l 1
 1007 -416 l 1
 822 -416 l 1
 822 100 l 1
 747.333333333 20 648 -20 524 -20 c 0
 393.333333333 -20 289.166666667 30.8333333333 211.5 132.5 c 128
 133.833333333 234.166666667 95 369 95 537 c 2
 95 550 l 2
280 529 m 0
 280 405 306.166666667 307.666666667 358.5 237 c 128
 410.833333333 166.333333333 481.333333333 131 570 131 c 0
 680 131 764 179.666666667 822 277 c 1
 822 807 l 1
 763.333333333 902.333333333 680 950 572 950 c 0
 482.666666667 950 411.666666667 914.5 359 843.5 c 128
 306.333333333 772.5 280 667.666666667 280 529 c 0
EndSplineSet
Validated: 1
EndChar

StartChar: r
Encoding: 114 114 81
Width: 693
Flags: HW
LayerCount: 2
Fore
SplineSet
663 916 m 1
 635 920.666666667 604.666666667 923 572 923 c 0
 450.666666667 923 368.333333333 871.333333333 325 768 c 1
 325 0 l 1
 140 0 l 1
 140 1082 l 1
 320 1082 l 1
 323 957 l 1
 383.666666667 1053.66666667 469.666666667 1102 581 1102 c 0
 617 1102 644.333333333 1097.33333333 663 1088 c 1
 663 916 l 1
EndSplineSet
Validated: 1
EndChar

StartChar: s
Encoding: 115 115 82
Width: 1056
Flags: HW
LayerCount: 2
Fore
SplineSet
770 287 m 0
 770 337 751.166666667 375.833333333 713.5 403.5 c 128
 675.833333333 431.166666667 610.166666667 455 516.5 475 c 128
 422.833333333 495 348.5 519 293.5 547 c 128
 238.5 575 197.833333333 608.333333333 171.5 647 c 128
 145.166666667 685.666666667 132 731.666666667 132 785 c 0
 132 873.666666667 169.5 948.666666667 244.5 1010 c 128
 319.5 1071.33333333 415.333333333 1102 532 1102 c 0
 654.666666667 1102 754.166666667 1070.33333333 830.5 1007 c 128
 906.833333333 943.666666667 945 862.666666667 945 764 c 1
 759 764 l 1
 759 814.666666667 737.5 858.333333333 694.5 895 c 128
 651.5 931.666666667 597.333333333 950 532 950 c 0
 464.666666667 950 412 935.333333333 374 906 c 128
 336 876.666666667 317 838.333333333 317 791 c 0
 317 746.333333333 334.666666667 712.666666667 370 690 c 128
 405.333333333 667.333333333 469.166666667 645.666666667 561.5 625 c 128
 653.833333333 604.333333333 728.666666667 579.666666667 786 551 c 128
 843.333333333 522.333333333 885.833333333 487.833333333 913.5 447.5 c 128
 941.166666667 407.166666667 955 358 955 300 c 0
 955 203.333333333 916.333333333 125.833333333 839 67.5 c 128
 761.666666667 9.16666666667 661.333333333 -20 538 -20 c 0
 451.333333333 -20 374.666666667 -4.66666666667 308 26 c 128
 241.333333333 56.6666666667 189.166666667 99.5 151.5 154.5 c 128
 113.833333333 209.5 95 269 95 333 c 1
 280 333 l 1
 283.333333333 271 308.166666667 221.833333333 354.5 185.5 c 128
 400.833333333 149.166666667 462 131 538 131 c 0
 608 131 664.166666667 145.166666667 706.5 173.5 c 128
 748.833333333 201.833333333 770 239.666666667 770 287 c 0
EndSplineSet
Validated: 1
EndChar

StartChar: t
Encoding: 116 116 83
Width: 669
Flags: HW
LayerCount: 2
Fore
SplineSet
391 1344 m 1
 391 1082 l 1
 593 1082 l 1
 593 939 l 1
 391 939 l 1
 391 268 l 2
 391 224.666666667 400 192.166666667 418 170.5 c 128
 436 148.833333333 466.666666667 138 510 138 c 0
 531.333333333 138 560.666666667 142 598 150 c 1
 598 0 l 1
 549.333333333 -13.3333333333 502 -20 456 -20 c 0
 373.333333333 -20 311 5 269 55 c 128
 227 105 206 176 206 268 c 2
 206 939 l 1
 9 939 l 1
 9 1082 l 1
 206 1082 l 1
 206 1344 l 1
 391 1344 l 1
EndSplineSet
Validated: 1
EndChar

StartChar: u
Encoding: 117 117 84
Width: 1129
Flags: HW
LayerCount: 2
Fore
SplineSet
808 107 m 1
 736 22.3333333333 630.333333333 -20 491 -20 c 0
 375.666666667 -20 287.833333333 13.5 227.5 80.5 c 128
 167.166666667 147.5 136.666666667 246.666666667 136 378 c 2
 136 1082 l 1
 321 1082 l 1
 321 383 l 2
 321 219 387.666666667 137 521 137 c 0
 662.333333333 137 756.333333333 189.666666667 803 295 c 1
 803 1082 l 1
 988 1082 l 1
 988 0 l 1
 812 0 l 1
 808 107 l 1
EndSplineSet
Validated: 1
EndChar

StartChar: v
Encoding: 118 118 85
Width: 992
Flags: HW
LayerCount: 2
Fore
SplineSet
497 251 m 1
 765 1082 l 1
 954 1082 l 1
 566 0 l 1
 425 0 l 1
 33 1082 l 1
 222 1082 l 1
 497 251 l 1
EndSplineSet
Validated: 1
EndChar

StartChar: w
Encoding: 119 119 86
Width: 1539
Flags: HW
LayerCount: 2
Fore
SplineSet
1098 255 m 1
 1306 1082 l 1
 1491 1082 l 1
 1176 0 l 1
 1026 0 l 1
 763 820 l 1
 507 0 l 1
 357 0 l 1
 43 1082 l 1
 227 1082 l 1
 440 272 l 1
 692 1082 l 1
 841 1082 l 1
 1098 255 l 1
EndSplineSet
Validated: 1
EndChar

StartChar: x
Encoding: 120 120 87
Width: 1015
Flags: HW
LayerCount: 2
Fore
SplineSet
503 687 m 1
 743 1082 l 1
 959 1082 l 1
 605 547 l 1
 970 0 l 1
 756 0 l 1
 506 405 l 1
 256 0 l 1
 41 0 l 1
 406 547 l 1
 52 1082 l 1
 266 1082 l 1
 503 687 l 1
EndSplineSet
Validated: 1
EndChar

StartChar: y
Encoding: 121 121 88
Width: 969
Flags: HW
LayerCount: 2
Fore
SplineSet
494 271 m 1
 746 1082 l 1
 944 1082 l 1
 509 -167 l 1
 441.666666667 -347 334.666666667 -437 188 -437 c 1
 153 -434 l 1
 84 -421 l 1
 84 -271 l 1
 134 -275 l 1
 196.666666667 -275 245.5 -262.333333333 280.5 -237 c 128
 315.5 -211.666666667 344.333333333 -165.333333333 367 -98 c 2
 408 12 l 1
 22 1082 l 1
 224 1082 l 1
 494 271 l 1
EndSplineSet
Validated: 1
EndChar

StartChar: z
Encoding: 122 122 89
Width: 1015
Flags: HW
LayerCount: 2
Fore
SplineSet
314 151 m 1
 947 151 l 1
 947 0 l 1
 88 0 l 1
 88 136 l 1
 685 929 l 1
 97 929 l 1
 97 1082 l 1
 917 1082 l 1
 917 951 l 1
 314 151 l 1
EndSplineSet
Validated: 1
EndChar

StartChar: braceleft
Encoding: 123 123 90
Width: 693
Flags: HW
LayerCount: 2
Fore
SplineSet
632 -366 m 1
 514 -332.666666667 425.166666667 -277.833333333 365.5 -201.5 c 128
 305.833333333 -125.166666667 276 -24.3333333333 276 101 c 2
 276 300 l 2
 276 462 205.333333333 543 64 543 c 1
 64 688 l 1
 205.333333333 688 276 768.666666667 276 930 c 2
 276 1138 l 2
 277.333333333 1260 307.166666667 1358.5 365.5 1433.5 c 128
 423.833333333 1508.5 512.666666667 1563 632 1597 c 1
 670 1482 l 1
 530.666666667 1437.33333333 461 1321 461 1133 c 2
 461 931 l 2
 461 779.666666667 405.333333333 674.333333333 294 615 c 1
 405.333333333 555 461 448.666666667 461 296 c 2
 461 90 l 2
 463 -93.3333333333 532.666666667 -207 670 -251 c 1
 632 -366 l 1
EndSplineSet
Validated: 1
EndChar

StartChar: bar
Encoding: 124 124 91
Width: 499
Flags: HW
LayerCount: 2
Fore
SplineSet
324 -270 m 1
 175 -270 l 1
 175 1456 l 1
 324 1456 l 1
 324 -270 l 1
EndSplineSet
Validated: 1
EndChar

StartChar: braceright
Encoding: 125 125 92
Width: 693
Flags: HW
LayerCount: 2
Fore
SplineSet
19 -251 m 1
 154.333333333 -207.666666667 224.333333333 -97.3333333333 229 80 c 1
 229 300 l 2
 229 454 289.333333333 559 410 615 c 1
 289.333333333 669.666666667 229 774.666666667 229 930 c 2
 229 1133 l 2
 229 1321 159.333333333 1437.33333333 20 1482 c 1
 58 1597 l 1
 176 1563.66666667 264.666666667 1509.5 324 1434.5 c 128
 383.333333333 1359.5 413.333333333 1260.33333333 414 1137 c 2
 414 927 l 2
 414 767.666666667 484.666666667 688 626 688 c 1
 626 543 l 1
 484.666666667 543 414 462 414 300 c 2
 414 98 l 2
 414 -27.3333333333 383.833333333 -127.666666667 323.5 -203 c 128
 263.166666667 -278.333333333 174.666666667 -332.666666667 58 -366 c 1
 19 -251 l 1
EndSplineSet
Validated: 1
EndChar

StartChar: asciitilde
Encoding: 126 126 93
Width: 1393
Flags: HW
LayerCount: 2
Fore
SplineSet
1263 777 m 1
 1263 671.666666667 1231.83333333 582.833333333 1169.5 510.5 c 128
 1107.16666667 438.166666667 1030.33333333 402 939 402 c 0
 891 402 845.666666667 410.833333333 803 428.5 c 128
 760.333333333 446.166666667 710.833333333 479.666666667 654.5 529 c 128
 598.166666667 578.333333333 557.666666667 609 533 621 c 128
 508.333333333 633 482 639 454 639 c 0
 402 639 362 621.166666667 334 585.5 c 128
 306 549.833333333 292 500.666666667 292 438 c 1
 131 436 l 1
 131 542.666666667 161.666666667 630.333333333 223 699 c 128
 284.333333333 767.666666667 361.333333333 802 454 802 c 0
 504.666666667 802 553.333333333 791.333333333 600 770 c 128
 646.666666667 748.666666667 699.333333333 711.166666667 758 657.5 c 128
 816.666666667 603.833333333 867.333333333 573.666666667 910 567 c 1
 939 565 l 1
 989.666666667 565 1030.83333333 584.333333333 1062.5 623 c 128
 1094.16666667 661.666666667 1110 712.666666667 1110 776 c 1
 1263 777 l 1
EndSplineSet
Validated: 1
EndChar

StartChar: uni0080
Encoding: 128 128 94
Width: 1642
VWidth: 1048
Flags: HW
LayerCount: 2
Fore
SplineSet
801 1502 m 1
 1006.5 1502 1185 1433 1335 1295 c 128
 1485 1157 1569 986 1585.5 783.5 c 1
 1486.5 783.5 l 1
 1476 905 1435.5 1013 1365 1112 c 128
 1294.5 1211 1204.5 1286 1096.5 1337 c 1
 1008 1250 l 1
 759 1499 l 1
 801 1502 l 1
1099.5 728 m 2
 1099.5 845 1051.5 903.5 955.5 903.5 c 2
 894 903.5 l 1
 894 525.5 l 1
 952.5 525.5 l 2
 1026 525.5 1072.5 561.5 1093.5 630.5 c 0
 1098 645.5 1099.5 669.5 1099.5 704 c 2
 1099.5 728 l 2
955.5 977 m 2
 1063.5 977 1137 929 1176 833 c 0
 1186.5 809 1191 773 1191 728 c 2
 1191 704 l 2
 1191 626 1170 566 1126.5 522.5 c 0
 1081.5 477.5 1024.5 455 952.5 455 c 2
 801 455 l 1
 801 977 l 1
 955.5 977 l 2
651 722 m 1
 708 699.5 736.5 659 736.5 602 c 0
 736.5 581 732 561.5 721.5 540.5 c 0
 709.5 516.5 699 500 688.5 492.5 c 0
 658.5 468.5 616.5 455 565.5 455 c 0
 516 455 475.5 468.5 445.5 492.5 c 128
 415.5 516.5 399 552.5 399 599 c 1
 481.5 599 l 1
 481.5 576.5 490.5 558.5 505.5 543.5 c 128
 520.5 528.5 541.5 522.5 565.5 522.5 c 0
 622.5 522.5 651 549.5 651 605 c 128
 651 660.5 618 689 555 689 c 2
 507 689 l 1
 507 756.5 l 1
 555 756.5 l 2
 615 756.5 645 782 645 833 c 128
 645 884 618 909.5 565.5 909.5 c 0
 514.5 909.5 487.5 885.5 487.5 839 c 1
 402 839 l 1
 402 873.5 418.5 908 448.5 938 c 0
 481.5 965 520.5 977 565.5 977 c 0
 637.5 977 687 950 715.5 894.5 c 0
 723 878 727.5 857 727.5 833 c 0
 727.5 786.5 702 749 651 722 c 1
507 95 m 1
 595.5 182 l 1
 844.5 -67 l 1
 801 -70 l 1
 595.5 -70 418.5 -1 268.5 138.5 c 128
 118.5 278 34.5 449 18 651.5 c 1
 117 651.5 l 1
 129 528.5 171 419 240 320 c 128
 309 221 399 146 507 95 c 1
EndSplineSet
Validated: 1
EndChar

StartChar: uni0081
Encoding: 129 129 95
Width: 1690
VWidth: 1048
Flags: HW
LayerCount: 2
Fore
SplineSet
1420.20019531 1025 m 2
 1276.20019531 881 l 1
 982.799804688 1176.20019531 l 1
 1125 1320.20019531 l 2
 1139.40039062 1334.59960938 1159.20019531 1341.79980469 1180.79980469 1341.79980469 c 128
 1202.40039062 1341.79980469 1222.20019531 1334.59960938 1236.59960938 1320.20019531 c 2
 1420.20019531 1136.59960938 l 2
 1434.59960938 1122.20019531 1443.59960938 1102.40039062 1443.59960938 1080.79980469 c 128
 1443.59960938 1059.20019531 1434.59960938 1039.40039062 1420.20019531 1025 c 2
27 222.200195312 m 1
 896.400390625 1091.59960938 l 1
 1191.59960938 796.400390625 l 1
 322.200195312 -73 l 1
 27 -73 l 1
 27 222.200195312 l 1
EndSplineSet
Validated: 1
EndChar

StartChar: uni0082
Encoding: 130 130 148
Width: 1732
VWidth: 1048
Flags: HW
LayerCount: 2
Fore
SplineSet
1230 1486 m 1
 1662 374 l 1
 1230 120 l 1
 1172 156 l 2
 1180 186 1184 216 1184 248 c 0
 1184 312 1168 372 1138 424 c 0
 1060 560 948 586 948 586 c 1
 948 822 l 1
 1230 1486 l 1
24 870 m 1
 458 1124 l 1
 868 870 l 1
 868 602 l 1
 868 602 676 616 540 488 c 0
 404 360 442 152 442 152 c 1
 24 388 l 1
 24 870 l 1
520 228 m 0
 520 392 652 524 816 524 c 0
 980 524 1114 392 1114 228 c 0
 1114 64 980 -70 816 -70 c 0
 652 -70 520 64 520 228 c 0
EndSplineSet
Validated: 33
EndChar

StartChar: uni0083
Encoding: 131 131 149
Width: 1744
VWidth: 1048
Flags: HW
LayerCount: 2
Fore
SplineSet
640.799804688 -54.400390625 m 1
 649.799804688 -36.400390625 703.799804688 53.599609375 799.200195312 221 c 128
 894.599609375 388.399414062 968.399414062 514.399414062 1020.59960938 600.799804688 c 1
 1308.59960938 104 l 1
 1162.79980469 -14.7998046875 997.200195312 -74.2001953125 810 -74.2001953125 c 0
 757.799804688 -74.2001953125 702 -67 640.799804688 -54.400390625 c 1
57.599609375 476.599609375 m 1
 820.799804688 476.599609375 l 1
 531 -22 l 1
 417.599609375 19.3994140625 320.399414062 86 237.599609375 172.399414062 c 128
 154.799804688 258.799804688 93.599609375 361.399414062 57.599609375 476.599609375 c 1
232.200195312 1243.39941406 m 1
 630 554 l 1
 39.599609375 554 l 1
 30.599609375 600.799804688 25.2001953125 653 25.2001953125 712.399414062 c 0
 25.2001953125 915.799804688 95.3994140625 1094 232.200195312 1243.39941406 c 1
1580.39941406 870.799804688 m 1
 1589.39941406 824 1596.59960938 771.799804688 1596.59960938 712.399414062 c 0
 1596.59960938 509 1526.39941406 330.799804688 1389.59960938 181.399414062 c 1
 1013.39941406 829.399414062 l 1
 991.799804688 870.799804688 l 1
 1580.39941406 870.799804688 l 1
1562.39941406 948.200195312 m 1
 799.200195312 948.200195312 l 1
 1090.79980469 1445 l 1
 1204.20019531 1403.59960938 1301.39941406 1338.79980469 1384.20019531 1252.39941406 c 128
 1467 1166 1526.39941406 1063.39941406 1562.39941406 948.200195312 c 1
608.399414062 829.399414062 m 1
 601.200195312 822.200195312 l 1
 313.200195312 1320.79980469 l 1
 459 1439.59960938 622.799804688 1497.20019531 810 1497.20019531 c 0
 862.200195312 1497.20019531 918 1491.79980469 979.200195312 1479.20019531 c 1
 608.399414062 829.399414062 l 1
EndSplineSet
Validated: 1
EndChar

StartChar: uni0084
Encoding: 132 132 150
Width: 1780
VWidth: 1048
Flags: HW
LayerCount: 2
Fore
SplineSet
1905.87207031 1156.92773438 m 2
 1984.09570312 1201.77636719 2048 1164.91210938 2048.015625 1074.55957031 c 2
 2048.015625 152.959960938 l 2
 2048.015625 63.0400390625 1983.91992188 26.240234375 1905.88769531 71.0400390625 c 2
 1494.015625 307.83984375 l 1
 1494.015625 231.440429688 l 2
 1494.00683594 95.8056640625 1383.890625 -14.3115234375 1248.25585938 -14.3203125 c 2
 245.759765625 -14.3203125 l 2
 110.125 -14.3115234375 0.0087890625 95.8056640625 0 231.440429688 c 2
 0 996.576171875 l 2
 0.03515625 1132.18847656 110.141601562 1242.27929688 245.759765625 1242.28808594 c 2
 1248.24023438 1242.28808594 l 2
 1383.875 1242.27929688 1493.99121094 1132.16210938 1494 996.528320312 c 2
 1494 920.127929688 l 1
 1905.87207031 1156.92773438 l 2
EndSplineSet
EndChar

StartChar: uni0085
Encoding: 133 133 151
Width: 1830
VWidth: 1048
Flags: HW
LayerCount: 2
Fore
SplineSet
1278.29980469 270.799804688 m 1
 1382 371.099609375 l 1
 1514.59960938 240.19921875 l 1
 1409.20019531 134.799804688 l 1
 1278.29980469 270.799804688 l 1
1482.29980469 838.599609375 m 1
 1706.70019531 838.599609375 l 1
 1706.70019531 689 l 1
 1482.29980469 689 l 1
 1482.29980469 838.599609375 l 1
1110 1148 m 1
 1178 1108.89941406 1232.40039062 1056.19921875 1273.20019531 988.19921875 c 128
 1314 920.19921875 1332.70019531 847.099609375 1332.70019531 765.5 c 0
 1332.70019531 643.099609375 1290.20019531 536 1203.5 449.299804688 c 128
 1116.79980469 362.599609375 1009.70019531 320.099609375 887.299804688 320.099609375 c 128
 764.900390625 320.099609375 659.5 362.599609375 572.799804688 449.299804688 c 128
 486.099609375 536 441.900390625 643.099609375 441.900390625 765.5 c 0
 441.900390625 847.099609375 462.299804688 920.19921875 503.099609375 988.19921875 c 128
 543.900390625 1056.19921875 596.599609375 1108.89941406 664.599609375 1148 c 1
 664.599609375 1506.69921875 l 1
 1110 1506.69921875 l 1
 1110 1148 l 1
292.299804688 838.599609375 m 1
 292.299804688 689 l 1
 69.599609375 689 l 1
 69.599609375 838.599609375 l 1
 292.299804688 838.599609375 l 1
814.200195312 -48.80078125 m 1
 814.200195312 170.5 l 1
 960.400390625 170.5 l 1
 960.400390625 -48.80078125 l 1
 814.200195312 -48.80078125 l 1
261.700195312 240.19921875 m 1
 392.599609375 374.5 l 1
 498 270.799804688 l 1
 365.400390625 134.799804688 l 1
 261.700195312 240.19921875 l 1
EndSplineSet
Validated: 1
EndChar

StartChar: uni0086
Encoding: 134 134 152
Width: 1630
VWidth: 1048
Flags: HW
LayerCount: 2
Fore
SplineSet
1218 406.399414062 m 0
 1281 406.399414062 1336.79980469 383 1381.79980469 338 c 128
 1426.79980469 293 1446.60058594 239 1446.60058594 177.799804688 c 0
 1446.60058594 114.799804688 1425 59 1380 14 c 128
 1335 -31 1279.20019531 -54.400390625 1218 -54.400390625 c 128
 1156.79980469 -54.400390625 1102.79980469 -31 1057.79980469 14 c 128
 1012.79980469 59 989.400390625 114.799804688 989.400390625 177.799804688 c 0
 989.400390625 203 993 221 994.799804688 230 c 2
 436.799804688 554 l 1
 390 512.599609375 336 491 274.799804688 491 c 0
 211.799804688 491 156 514.399414062 109.200195312 561.19921875 c 128
 62.400390625 608 39 663.799804688 39 726.799804688 c 128
 39 789.799804688 62.400390625 845.599609375 109.200195312 892.399414062 c 128
 156 939.19921875 211.799804688 962.599609375 274.799804688 962.599609375 c 0
 336 962.599609375 390 942.799804688 436.799804688 901.399414062 c 1
 989.400390625 1221.79980469 l 1
 984 1247 982.200195312 1263.19921875 982.200195312 1275.79980469 c 0
 982.200195312 1338.79980469 1005.60058594 1396.39941406 1052.40039062 1443.19921875 c 128
 1099.20019531 1490 1155 1513.39941406 1218 1513.39941406 c 128
 1281 1513.39941406 1338.60058594 1490 1385.40039062 1443.19921875 c 128
 1432.20019531 1396.39941406 1455.60058594 1338.79980469 1455.60058594 1275.79980469 c 128
 1455.60058594 1212.79980469 1432.20019531 1157 1385.40039062 1110.19921875 c 128
 1338.60058594 1063.39941406 1281 1040 1218 1040 c 0
 1158.60058594 1040 1104.60058594 1061.59960938 1056 1106.59960938 c 1
 503.400390625 782.599609375 l 1
 508.799804688 757.399414062 510.600585938 739.399414062 510.600585938 726.799804688 c 128
 510.600585938 714.19921875 508.799804688 698 503.400390625 672.799804688 c 1
 1063.20019531 347 l 1
 1108.20019531 386.599609375 1158.60058594 406.399414062 1218 406.399414062 c 0
EndSplineSet
Validated: 1
EndChar

StartChar: uni0087
Encoding: 135 135 153
Width: 1632
VWidth: 1780
Flags: HW
LayerCount: 2
Fore
SplineSet
1403 1524 m 2
 1448.33300781 1524 1488.33300781 1506.66699219 1523 1472 c 128
 1557.66699219 1437.33300781 1575 1397.33300781 1575 1352 c 2
 1575 160 l 2
 1575 114.666992188 1557.66699219 74.6669921875 1523 40 c 128
 1488.33300781 5.3330078125 1448.33300781 -12 1403 -12 c 2
 211 -12 l 2
 163 -12 122.333007812 5.3330078125 89 40 c 128
 55.6669921875 74.6669921875 39 114.666992188 39 160 c 2
 39 500 l 1
 211 500 l 1
 211 160 l 1
 1403 160 l 1
 1403 1352 l 1
 211 1352 l 1
 211 1012 l 1
 39 1012 l 1
 39 1352 l 2
 39 1397.33300781 55.6669921875 1437.33300781 89 1472 c 128
 122.333007812 1506.66699219 163 1524 211 1524 c 2
 1403 1524 l 2
643 448 m 1
 863 672 l 1
 39 672 l 1
 39 840 l 1
 863 840 l 1
 643 1064 l 1
 763 1184 l 1
 1191 756 l 1
 763 328 l 1
 643 448 l 1
EndSplineSet
EndChar

StartChar: uni0088
Encoding: 136 136 154
Width: 1656
VWidth: 1780
Flags: HW
LayerCount: 2
Fore
SplineSet
901.696289062 494.528320312 m 1
 901.696289062 739.15234375 l 1
 1143.47167969 739.15234375 l 1
 1143.47167969 494.528320312 l 1
 901.696289062 494.528320312 l 1
657.072265625 249.904296875 m 1
 657.072265625 494.528320312 l 1
 901.696289062 494.528320312 l 1
 901.696289062 249.904296875 l 1
 657.072265625 249.904296875 l 1
1143.47167969 249.904296875 m 1
 1143.47167969 494.528320312 l 1
 1388.09570312 494.528320312 l 1
 1388.09570312 249.904296875 l 1
 1143.47167969 249.904296875 l 1
1388.09570312 494.528320312 m 1
 1388.09570312 739.15234375 l 1
 1632.71972656 739.15234375 l 1
 1632.71972656 494.528320312 l 1
 1388.09570312 494.528320312 l 1
415.295898438 494.528320312 m 1
 415.295898438 739.15234375 l 1
 657.072265625 739.15234375 l 1
 657.072265625 494.528320312 l 1
 415.295898438 494.528320312 l 1
170.671875 -410 m 2
 169.676757812 -410.017578125 168.6796875 -410.026367188 167.680664062 -410.026367188 c 0
 121.44921875 -410.026367188 79.685546875 -390.958984375 49.7763671875 -360.223632812 c 0
 19.041015625 -330.314453125 -0.060546875 -288.509765625 -0.060546875 -242.278320312 c 0
 -0.060546875 -241.279296875 -0.017578125 -240.323242188 0 -239.328125 c 2
 0 1467.328125 l 2
 -0.017578125 1468.32324219 -0.0263671875 1469.3203125 -0.0263671875 1470.31933594 c 0
 -0.0263671875 1516.55078125 19.041015625 1558.31445312 49.7763671875 1588.22363281 c 0
 79.685546875 1618.95898438 121.490234375 1638.06054688 167.721679688 1638.06054688 c 0
 168.720703125 1638.06054688 169.676757812 1638.01757812 170.671875 1638 c 2
 1877.328125 1638 l 2
 1878.32324219 1638.01757812 1879.3203125 1638.02636719 1880.31933594 1638.02636719 c 0
 1926.55078125 1638.02636719 1968.31445312 1618.95898438 1998.22363281 1588.22363281 c 0
 2028.95898438 1558.31445312 2048.06054688 1516.50976562 2048.06054688 1470.27832031 c 0
 2048.06054688 1469.27929688 2048.01757812 1468.32324219 2048 1467.328125 c 2
 2048 -239.328125 l 2
 2048.00097656 -239.573242188 2048.00195312 -239.818359375 2048.00195312 -240.063476562 c 0
 2048.00195312 -333.862304688 1971.84863281 -410.015625 1878.04980469 -410.015625 c 0
 1877.8046875 -410.015625 1877.57324219 -410.000976562 1877.328125 -410 c 2
 170.671875 -410 l 2
415.295898438 -239.328125 m 1
 657.072265625 -239.328125 l 1
 657.072265625 5.2958984375 l 1
 415.295898438 5.2958984375 l 1
 415.295898438 -239.328125 l 1
901.696289062 -239.328125 m 1
 1143.47167969 -239.328125 l 1
 1143.47167969 5.2958984375 l 1
 901.696289062 5.2958984375 l 1
 901.696289062 -239.328125 l 1
1877.34375 -239.328125 m 1
 1877.34375 -239.328125 l 1
170.671875 5.2958984375 m 1
 415.295898438 5.2958984375 l 1
 415.295898438 249.904296875 l 1
 657.072265625 249.904296875 l 1
 657.072265625 5.2802734375 l 1
 901.696289062 5.2802734375 l 1
 901.696289062 249.904296875 l 1
 1143.47167969 249.904296875 l 1
 1143.47167969 5.2802734375 l 1
 1388.09570312 5.2802734375 l 1
 1388.09570312 249.904296875 l 1
 1632.71972656 249.904296875 l 1
 1632.71972656 5.2802734375 l 1
 1877.34375 5.2802734375 l 1
 1877.34375 249.904296875 l 1
 1632.70410156 249.904296875 l 1
 1632.70410156 494.528320312 l 1
 1877.328125 494.528320312 l 1
 1877.328125 1467.328125 l 1
 170.671875 1467.328125 l 1
 170.671875 494.528320312 l 1
 415.295898438 494.528320312 l 1
 415.295898438 249.904296875 l 1
 170.671875 249.904296875 l 1
 170.671875 5.2958984375 l 1
170.671875 -239.328125 m 1
 170.671875 -239.328125 l 1
1877.328125 494.528320312 m 1
 1877.328125 494.528320312 l 1
1388.09570312 5.2958984375 m 1
 1388.09570312 -239.328125 l 1
 1632.71972656 -239.328125 l 1
 1632.71972656 5.2958984375 l 1
 1388.09570312 5.2958984375 l 1
EndSplineSet
EndChar

StartChar: uni0089
Encoding: 137 137 155
Width: 2048
Flags: H
LayerCount: 2
Fore
SplineSet
1003.39160156 553.50390625 m 1
 1003.328125 553.423828125 l 1
 1081.22167969 543.84765625 1141.78027344 477.40625 1141.78027344 396.94140625 c 0
 1141.78027344 309.90625 1071.11914062 239.245117188 984.084960938 239.245117188 c 0
 897.689453125 239.245117188 827.428710938 308.87109375 826.400390625 395.024414062 c 0
 826.994140625 470.270507812 879.31640625 533.323242188 949.471679688 550.416015625 c 1
 949.471679688 1019.6640625 l 1
 1003.39160156 1019.6640625 l 1
 1003.39160156 553.50390625 l 1
1115.0078125 1076.3203125 m 1
 1115.0078125 1076.25585938 l 1
 1130.40039062 1085.48828125 1145.79199219 1094.71972656 1161.16796875 1105.48828125 c 2
 1627.91992188 541.103515625 l 2
 1646.33398438 548.918945312 1666.68554688 553.340820312 1687.91992188 553.408203125 c 0
 1688.41894531 553.413085938 1688.89160156 553.415039062 1689.39160156 553.415039062 c 0
 1776.81542969 553.415039062 1847.79199219 482.438476562 1847.79199219 395.014648438 c 0
 1847.79199219 307.591796875 1776.81542969 236.615234375 1689.39160156 236.615234375 c 0
 1601.97070312 236.615234375 1530.99609375 307.587890625 1530.9921875 395.0078125 c 0
 1531.01660156 441.453125 1551.18066406 483.189453125 1583.29589844 511.935546875 c 2
 1115.0078125 1076.3203125 l 1
1649.47167969 -94.1923828125 m 1
 1649.44042969 -94.17578125 l 1
 1660.6953125 -91.634765625 1672.31054688 -90.1787109375 1684.32910156 -90.1787109375 c 0
 1771.75195312 -90.1787109375 1842.72851562 -161.155273438 1842.72851562 -248.578125 c 0
 1842.72851562 -336.001953125 1771.75195312 -406.978515625 1684.32910156 -406.978515625 c 0
 1608.32421875 -406.978515625 1544.75097656 -353.33203125 1529.44042969 -281.872070312 c 0
 1527.73535156 -270.749023438 1526.70214844 -259.547851562 1526.36816406 -248.032226562 c 0
 1526.38378906 -213.750976562 1537.25292969 -181.813476562 1555.59960938 -155.727539062 c 2
 1103.31152344 221.200195312 l 1
 1118.49609375 230.93359375 1131.83691406 242.745117188 1143.31152344 256.576171875 c 1
 1592.54394531 -118.799804688 l 2
 1609.54882812 -107.452148438 1628.94921875 -98.9453125 1649.47167969 -94.1923828125 c 1
982.944335938 1134.92773438 m 1
 982.944335938 1134.95996094 l 1
 846.896484375 1134.95996094 735.135742188 1259.44042969 735.135742188 1385.18359375 c 0
 735.135742188 1510.92773438 711.34375 1636.65625 982.944335938 1637.984375 c 0
 1254.54394531 1639.31152344 1233.16796875 1513.34375 1233.16796875 1387.58398438 c 0
 1233.16796875 1261.82421875 1118.94433594 1134.92773438 982.944335938 1134.92773438 c 1
257.15234375 236.591796875 m 1
 257.15234375 236.65625 l 1
 170.544921875 237.737304688 100.497070312 308.2578125 100.223632812 395.055664062 c 0
 101.072265625 482.427734375 171.461914062 553.333984375 258.624023438 555.055664062 c 0
 283.484375 554.922851562 307.122070312 548.771484375 327.856445312 538.127929688 c 2
 774.255859375 1119.18359375 l 2
 789.565429688 1109.60058594 805.534179688 1100.83398438 821.952148438 1093.02441406 c 1
 370.927734375 505.82421875 l 2
 398.515625 478.08984375 415.555664062 439.870117188 415.555664062 397.700195312 c 0
 415.555664062 397.330078125 415.5546875 396.9609375 415.551757812 396.591796875 c 0
 414.704101562 309.219726562 344.313476562 238.314453125 257.15234375 236.591796875 c 1
804.84765625 281.18359375 m 1
 804.83203125 281.120117188 l 2
 814.9453125 266.180664062 826.146484375 252.418945312 838.671875 239.51953125 c 1
 384.83203125 -158.879882812 l 2
 403.225585938 -185.114257812 413.975585938 -217.20703125 413.975585938 -251.650390625 c 0
 413.975585938 -340.83984375 341.565429688 -413.25 252.375 -413.25 c 0
 163.185546875 -413.25 90.775390625 -340.83984375 90.775390625 -251.650390625 c 0
 90.775390625 -162.4609375 163.185546875 -90.0498046875 252.375 -90.0498046875 c 0
 262.409179688 -90.0498046875 272.23046875 -90.966796875 281.759765625 -92.7197265625 c 0
 305.901367188 -97.16015625 328.553710938 -106.8515625 347.919921875 -120.416015625 c 2
 804.84765625 281.18359375 l 1
EndSplineSet
EndChar

StartChar: uni008A
Encoding: 138 138 156
Width: 2048
Flags: H
LayerCount: 2
Fore
SplineSet
1024.43164062 1245.31152344 m 1
 938.676757812 1256.72558594 872.248046875 1330.16210938 872.248046875 1419.01757812 c 0
 872.248046875 1420.50683594 872.266601562 1421.99121094 872.303710938 1423.47167969 c 0
 872.302734375 1423.77148438 872.349609375 1424.05566406 872.349609375 1424.35546875 c 0
 872.349609375 1523.03808594 951.75 1603.32226562 1050.09570312 1604.75195312 c 0
 1148.96582031 1604.27929688 1229.15917969 1524.08496094 1229.63183594 1425.21582031 c 0
 1227.33886719 1338.46582031 1166.97460938 1265.99023438 1086.08007812 1245.31152344 c 1
 1085.10351562 717.15234375 l 1
 1024.43164062 717.15234375 l 1
 1024.43164062 1245.31152344 l 1
1829.51953125 -24.3203125 m 2
 1829.55175781 -24.3837890625 l 2
 1842.31152344 -21.501953125 1855.48046875 -19.849609375 1869.10644531 -19.849609375 c 0
 1968.18554688 -19.849609375 2048.62597656 -100.290039062 2048.62597656 -199.370117188 c 0
 2048.62597656 -298.44921875 1968.18554688 -378.889648438 1869.10644531 -378.889648438 c 0
 1782.9453125 -378.889648438 1710.88085938 -318.059570312 1693.55175781 -237.040039062 c 0
 1691.61621094 -224.418945312 1690.44238281 -211.708007812 1690.06445312 -198.639648438 c 0
 1690.078125 -159.794921875 1702.39453125 -123.60546875 1723.18359375 -94.0478515625 c 2
 1210.73632812 333.0078125 l 1
 1227.9375 344.041015625 1243.04980469 357.428710938 1256.04785156 373.103515625 c 1
 1765.02441406 -52.2080078125 l 2
 1784.28808594 -39.3466796875 1806.26757812 -29.705078125 1829.51953125 -24.3203125 c 2
854.383789062 373.103515625 m 1
 854.383789062 373.072265625 l 2
 865.865234375 356.169921875 878.57421875 340.604492188 892.784179688 326.015625 c 1
 378.543945312 -125.423828125 l 2
 399.379882812 -155.143554688 411.556640625 -191.499023438 411.556640625 -230.516601562 c 0
 411.556640625 -331.556640625 329.525390625 -413.588867188 228.485351562 -413.588867188 c 0
 127.4453125 -413.588867188 45.4130859375 -331.556640625 45.4130859375 -230.516601562 c 0
 45.4130859375 -129.4765625 127.4453125 -47.4443359375 228.485351562 -47.4443359375 c 0
 239.841796875 -47.4443359375 250.95703125 -48.4814453125 261.744140625 -50.4638671875 c 0
 289.090820312 -55.49609375 314.75 -66.4736328125 336.688476562 -81.83984375 c 2
 854.383789062 373.103515625 l 1
883.631835938 505.18359375 m 0
 883.631835938 602.385742188 962.4296875 681.18359375 1059.63183594 681.18359375 c 0
 1156.83398438 681.18359375 1235.63183594 602.385742188 1235.63183594 505.18359375 c 0
 1235.63183594 407.981445312 1156.83398438 329.18359375 1059.63183594 329.18359375 c 0
 962.4296875 329.18359375 883.631835938 407.981445312 883.631835938 505.18359375 c 0
EndSplineSet
EndChar

StartChar: uni008B
Encoding: 139 139 157
Width: 2048
Flags: H
LayerCount: 2
Fore
SplineSet
327.919921875 1319.95214844 m 1
 944.975585938 1319.95214844 l 1
 944.975585938 677.6640625 l 1
 177.200195312 677.6640625 l 1
 327.919921875 1319.95214844 l 1
151.82421875 534.288085938 m 1
 943.120117188 534.288085938 l 1
 943.120117188 -60.7041015625 l 1
 1.103515625 -60.7041015625 l 1
 151.82421875 534.288085938 l 1
1113.71191406 1319.95214844 m 1
 1730.76757812 1319.95214844 l 1
 1883.48828125 677.6484375 l 1
 1113.71191406 677.6484375 l 1
 1113.71191406 1319.95214844 l 1
1129.71191406 534.288085938 m 1
 1906.51171875 534.288085938 l 1
 2047.984375 -60.7041015625 l 1
 1129.71191406 -60.7041015625 l 1
 1129.71191406 534.288085938 l 1
EndSplineSet
EndChar

StartChar: uni008C
Encoding: 140 140 158
Width: 2048
Flags: H
LayerCount: 2
Fore
SplineSet
141.248046875 183.215820312 m 0
 140.73828125 183.2109375 140.227539062 183.208007812 139.716796875 183.208007812 c 0
 61.759765625 183.208007812 -1.53125 246.499023438 -1.53125 324.456054688 c 0
 -1.53125 402.413085938 61.759765625 465.704101562 139.716796875 465.704101562 c 0
 140.227539062 465.704101562 140.73828125 465.701171875 141.248046875 465.696289062 c 0
 141.7578125 465.701171875 142.268554688 465.704101562 142.779296875 465.704101562 c 0
 220.736328125 465.704101562 284.02734375 402.413085938 284.02734375 324.456054688 c 0
 284.02734375 246.499023438 220.736328125 183.208007812 142.779296875 183.208007812 c 0
 142.268554688 183.208007812 141.7578125 183.2109375 141.248046875 183.215820312 c 0
141.248046875 1355.51953125 m 1
 140.384765625 1355.50390625 139.518554688 1355.49609375 138.651367188 1355.49609375 c 0
 62.08984375 1355.49609375 -0.068359375 1417.65429688 -0.068359375 1494.21582031 c 0
 -0.068359375 1495.078125 -0.015625 1495.89355469 0 1496.75195312 c 0
 -0.015625 1497.61523438 -0.0234375 1498.48144531 -0.0234375 1499.34863281 c 0
 -0.0234375 1575.91015625 62.134765625 1638.06835938 138.696289062 1638.06835938 c 0
 139.563476562 1638.06835938 140.384765625 1638.015625 141.248046875 1638 c 0
 142.111328125 1638.015625 142.977539062 1638.0234375 143.844726562 1638.0234375 c 0
 220.40625 1638.0234375 282.564453125 1575.86523438 282.564453125 1499.30371094 c 0
 282.564453125 1498.43652344 282.51171875 1497.61523438 282.49609375 1496.75195312 c 0
 282.51171875 1495.88867188 282.51953125 1495.02246094 282.51953125 1494.15527344 c 0
 282.51953125 1417.59375 220.361328125 1355.43554688 143.799804688 1355.43554688 c 0
 142.932617188 1355.43554688 142.111328125 1355.48828125 141.248046875 1355.50390625 c 2
 141.248046875 1355.51953125 l 1
582.624023438 -410 m 0
 505.380859375 -409.166992188 442.927734375 -346.19921875 442.927734375 -268.760742188 c 0
 442.927734375 -190.803710938 506.21875 -127.512695312 584.17578125 -127.512695312 c 0
 622.765625 -127.512695312 657.759765625 -143.0078125 683.263671875 -168.127929688 c 0
 709.28125 -193.752929688 725.419921875 -229.379882812 725.419921875 -268.74609375 c 0
 725.419921875 -346.703125 662.12890625 -409.994140625 584.172851562 -409.994140625 c 0
 583.654296875 -409.994140625 583.140625 -410.005859375 582.624023438 -410 c 0
582.624023438 762.303710938 m 1
 504.6171875 762.990234375 441.499023438 826.53125 441.499023438 904.698242188 c 0
 441.499023438 943.376953125 456.918945312 978.502929688 481.984375 1004.17578125 c 0
 508.06640625 1029.31542969 543.53125 1044.78417969 582.58203125 1044.78417969 c 0
 621.631835938 1044.78417969 657.166015625 1029.31542969 683.248046875 1004.17578125 c 0
 709.264648438 978.55078125 725.404296875 942.923828125 725.404296875 903.557617188 c 0
 725.404296875 825.600585938 662.11328125 762.309570312 584.15625 762.309570312 c 0
 583.638671875 762.309570312 583.124023438 762.298828125 582.608398438 762.303710938 c 1
 582.624023438 762.303710938 l 1
1024 183.215820312 m 0
 948.6328125 184.600585938 887.874023438 246.216796875 887.874023438 321.912109375 c 0
 887.874023438 398.473632812 950.032226562 460.631835938 1026.59375 460.631835938 c 0
 1103.15527344 460.631835938 1165.31347656 398.473632812 1165.31347656 321.912109375 c 0
 1165.31347656 283.631835938 1149.74902344 248.93359375 1124.63964844 223.82421875 c 0
 1099.85546875 198.71875 1065.43359375 183.150390625 1027.40332031 183.150390625 c 0
 1026.25097656 183.150390625 1025.14550781 183.1875 1024 183.215820312 c 0
1024 1355.51953125 m 0
 1023.13671875 1355.50390625 1022.27050781 1355.49609375 1021.40332031 1355.49609375 c 0
 944.841796875 1355.49609375 882.68359375 1417.65429688 882.68359375 1494.21582031 c 0
 882.68359375 1495.08398438 882.736328125 1495.90429688 882.751953125 1496.76757812 c 0
 882.74609375 1497.27734375 882.744140625 1497.78808594 882.744140625 1498.29882812 c 0
 882.744140625 1576.25585938 946.03515625 1639.546875 1023.9921875 1639.546875 c 0
 1101.94921875 1639.546875 1165.24023438 1576.25585938 1165.24023438 1498.29882812 c 0
 1165.24023438 1497.78808594 1165.23730469 1497.27734375 1165.23242188 1496.76757812 c 0
 1165.24804688 1495.90429688 1165.25585938 1495.0390625 1165.25585938 1494.171875 c 0
 1165.25585938 1417.61035156 1103.09765625 1355.45214844 1026.53613281 1355.45214844 c 0
 1025.67382812 1355.45214844 1024.85839844 1355.50390625 1024 1355.51953125 c 0
1465.37597656 -410 m 0
 1390.00878906 -408.615234375 1329.25 -346.999023438 1329.25 -271.303710938 c 0
 1329.25 -194.7421875 1391.40820312 -132.583984375 1467.96972656 -132.583984375 c 0
 1544.53125 -132.583984375 1606.69042969 -194.7421875 1606.69042969 -271.303710938 c 0
 1606.69042969 -309.583984375 1591.125 -344.282226562 1566.015625 -369.391601562 c 0
 1541.23144531 -394.497070312 1506.80957031 -410.065429688 1468.77929688 -410.065429688 c 0
 1467.62695312 -410.065429688 1466.52148438 -410.028320312 1465.37597656 -410 c 0
1465.37597656 762.303710938 m 0
 1387.39941406 763.024414062 1324.31640625 826.552734375 1324.31640625 904.698242188 c 0
 1324.31640625 943.375976562 1339.73535156 978.502929688 1364.79980469 1004.17578125 c 0
 1390.24609375 1027.92285156 1424.39355469 1042.46289062 1461.91015625 1042.46289062 c 0
 1540.50292969 1042.46289062 1604.31054688 978.655273438 1604.31054688 900.0625 c 0
 1604.31054688 862.545898438 1589.81054688 828.358398438 1566.06445312 802.912109375 c 0
 1541.28027344 777.805664062 1506.85644531 762.237304688 1468.82617188 762.237304688 c 0
 1467.65820312 762.237304688 1466.53710938 762.274414062 1465.37597656 762.303710938 c 0
1906.75195312 183.215820312 m 0
 1831.38574219 184.600585938 1770.62597656 246.216796875 1770.62597656 321.912109375 c 0
 1770.62597656 398.473632812 1832.78417969 460.631835938 1909.34570312 460.631835938 c 0
 1985.90722656 460.631835938 2048.06640625 398.473632812 2048.06640625 321.912109375 c 0
 2048.06640625 283.631835938 2032.50097656 248.93359375 2007.39160156 223.82421875 c 0
 1982.60742188 198.71875 1948.18554688 183.150390625 1910.15527344 183.150390625 c 0
 1909.00292969 183.150390625 1907.89746094 183.1875 1906.75195312 183.215820312 c 0
1906.75195312 1355.51953125 m 1
 1905.88867188 1355.50390625 1905.02246094 1355.49609375 1904.15527344 1355.49609375 c 0
 1827.59375 1355.49609375 1765.43554688 1417.65429688 1765.43554688 1494.21582031 c 0
 1765.43554688 1495.08398438 1765.48828125 1495.90429688 1765.50390625 1496.76757812 c 0
 1765.49902344 1497.27734375 1765.49609375 1497.78808594 1765.49609375 1498.29882812 c 0
 1765.49609375 1576.25585938 1828.78710938 1639.546875 1906.74414062 1639.546875 c 0
 1984.70117188 1639.546875 2047.9921875 1576.25585938 2047.9921875 1498.29882812 c 0
 2047.9921875 1497.78808594 2047.98925781 1497.27734375 2047.984375 1496.76757812 c 0
 2048 1495.90429688 2048.0078125 1495.0390625 2048.0078125 1494.171875 c 0
 2048.0078125 1417.609375 1985.84960938 1355.45117188 1909.28808594 1355.45117188 c 0
 1908.42089844 1355.45117188 1907.59960938 1355.50390625 1906.73632812 1355.51953125 c 1
 1906.75195312 1355.51953125 l 1
EndSplineSet
EndChar

StartChar: uni008D
Encoding: 141 141 159
Width: 2048
Flags: H
LayerCount: 2
Fore
SplineSet
2029.70605469 603.3984375 m 1
 1525.78613281 -254.987304688 l 1
 508.73828125 -261.50390625 l 1
 7.0107421875 607.514648438 l 1
 522.252929688 1483.0234375 l 1
 1539.30175781 1489.54101562 l 1
 2041.02148438 620.536132812 l 1
 2029.70605469 603.3984375 l 1
1397.58300781 1144.41113281 m 1
 1475.08886719 1444.50488281 l 1
 609.2734375 1437.80371094 l 1
 1397.58300781 1144.41113281 l 1
1961.58886719 606.564453125 m 1
 1428.97167969 1067.1640625 l 1
 1325.13671875 69.4130859375 l 1
 1961.58886719 606.564453125 l 1
1383.07128906 1077.70703125 m 1
 447.935546875 657.376953125 l 1
 1278.52636719 58.3359375 l 1
 1383.07128906 1077.70703125 l 1
1244.48828125 25.4189453125 m 1
 439.639648438 607.490234375 l 1
 549.37109375 -185.001953125 l 1
 1244.48828125 25.4189453125 l 1
440.876953125 706.307617188 m 1
 1350.14648438 1111.7578125 l 1
 553.640625 1405.68359375 l 1
 440.876953125 706.307617188 l 1
385.739257812 682.41796875 m 1
 480.536132812 1321.0390625 l 1
 76.3134765625 634.26171875 l 1
 385.739257812 682.41796875 l 1
386.504882812 635.138671875 m 1
 70.8134765625 588.684570312 l 1
 486.420898438 -131.168945312 l 1
 386.504882812 635.138671875 l 1
1294.75097656 -6.56640625 m 1
 601.587890625 -215.860351562 l 1
 1477.65234375 -208.543945312 l 1
 1294.75097656 -6.56640625 l 1
1513.15039062 -182.764648438 m 1
 1922.98925781 512.557617188 l 1
 1332.54589844 15.2353515625 l 1
 1513.15039062 -182.764648438 l 1
1437.02929688 1121.9765625 m 1
 1958.78125 671.139648438 l 1
 1520.20507812 1430.77539062 l 1
 1437.02929688 1121.9765625 l 1
1543.89550781 1497.55078125 m 1
 2050.42382812 620.21875 l 1
 2036.4921875 599.131835938 l 1
 1530.30371094 -263.001953125 l 1
 504.129882812 -269.522460938 l 1
 -2.26953125 607.587890625 l 1
 0.09765625 611.615234375 l 1
 517.720703125 1491.06640625 l 1
 1543.89550781 1497.55078125 l 1
2031.63964844 620.754882812 m 1
 1534.67089844 1481.52832031 l 1
 526.809570312 1475.06835938 l 1
 16.1298828125 607.495117188 l 1
 513.193359375 -253.444335938 l 1
 1521.03320312 -246.978515625 l 1
 2023.04003906 607.80859375 l 1
 2031.63964844 620.754882812 l 1
1517.50390625 1451.42285156 m 1
 1965.71972656 675.090820312 l 1
 1953.56347656 665.041992188 l 1
 1427.96386719 1119.31054688 l 1
 1517.50390625 1451.42285156 l 1
1928.16699219 708.1328125 m 1
 1522.90332031 1410.07128906 l 1
 1446.01855469 1124.83886719 l 1
 1928.16699219 708.1328125 l 1
1485.44433594 1452.55273438 m 1
 1403.06835938 1133.75878906 l 1
 606.506835938 1430.27539062 l 1
 609.232421875 1445.77929688 l 1
 1485.44433594 1452.55273438 l 1
1392.00585938 1154.93652344 m 1
 1464.78222656 1436.46679688 l 1
 652.841796875 1430.18261719 l 1
 1392.00585938 1154.93652344 l 1
1973.94824219 606.438476562 m 1
 1315.19824219 50.4658203125 l 1
 1422.59960938 1083.16113281 l 1
 1973.94824219 606.438476562 l 1
1335.19335938 88.2822265625 m 1
 1949.30273438 606.565429688 l 1
 1435.35546875 1050.98925781 l 1
 1335.19335938 88.2822265625 l 1
1929.93066406 508.56640625 m 1
 1514.609375 -196.075195312 l 1
 1321.10546875 16.076171875 l 1
 1917.95605469 518.779296875 l 1
 1929.93066406 508.56640625 l 1
1511.76269531 -169.321289062 m 1
 1892.34765625 476.318359375 l 1
 1344.06542969 14.5146484375 l 1
 1511.76269531 -169.321289062 l 1
1392.44238281 1090.69140625 m 1
 1285.06542969 43.7470703125 l 1
 432.00390625 658.987304688 l 1
 1392.44238281 1090.69140625 l 1
1271.97363281 72.91796875 m 1
 1373.73242188 1064.66601562 l 1
 463.861328125 655.745117188 l 1
 1271.97363281 72.91796875 l 1
1371.375 1112.43066406 m 1
 430.590820312 693.051757812 l 1
 547.262695312 1416.63378906 l 1
 1371.375 1112.43066406 l 1
451.11328125 719.681640625 m 1
 1328.92675781 1111.07226562 l 1
 559.967773438 1394.85253906 l 1
 451.11328125 719.681640625 l 1
1495.53027344 -216.309570312 m 1
 601.6328125 -223.778320312 l 1
 599.259765625 -208.115234375 l 1
 1297.26660156 2.6455078125 l 1
 1495.53027344 -216.309570312 l 1
657.331054688 -207.41796875 m 1
 1459.77832031 -200.720703125 l 1
 1292.25390625 -15.712890625 l 1
 657.331054688 -207.41796875 l 1
1262.29003906 22.39453125 m 1
 542.642578125 -195.427734375 l 1
 429.0546875 624.897460938 l 1
 1262.29003906 22.39453125 l 1
556.03125 -174.74609375 m 1
 1226.76757812 28.3056640625 l 1
 450.149414062 589.927734375 l 1
 556.03125 -174.74609375 l 1
488.509765625 1319.8046875 m 1
 392.740234375 675.411132812 l 1
 60.8017578125 623.75390625 l 1
 473.58984375 1325.10253906 l 1
 488.509765625 1319.8046875 l 1
378.75 689.338867188 m 1
 466.651367188 1281.50488281 l 1
 91.7822265625 644.78125 l 1
 378.75 689.338867188 l 1
393.4140625 644.2265625 m 1
 494.404296875 -130.180664062 l 1
 479.5390625 -135.216796875 l 1
 58.0107421875 594.891601562 l 1
 393.4140625 644.2265625 l 1
473.291992188 -92.5244140625 m 1
 379.591796875 625.9921875 l 1
 83.611328125 582.420898438 l 1
 473.291992188 -92.5244140625 l 1
EndSplineSet
EndChar

StartChar: uni008E
Encoding: 142 142 160
Width: 2048
Flags: H
LayerCount: 2
Fore
SplineSet
778.16015625 1552.03222656 m 1
 778.127929688 1552.03222656 l 1
 847.581054688 1503.07617188 933.073242188 1474.3125 1024.42578125 1474.3125 c 0
 1115.77929688 1474.3125 1200.46679688 1503.07617188 1269.91992188 1552.03222656 c 1
 1722.46386719 1344.55957031 1712.55957031 1309.15234375 2048 941.375976562 c 1
 1730.59179688 581.952148438 l 1
 1619.56835938 677.952148438 l 1
 1619.77636719 -313.568359375 l 1
 1063.26367188 -327.471679688 984.83203125 -327.471679688 428.3203125 -313.568359375 c 1
 428.48046875 677.919921875 l 1
 317.456054688 581.919921875 l 1
 0 941.375976562 l 1
 335.51953125 1309.15234375 325.51953125 1344.55957031 778.16015625 1552.03222656 c 1
EndSplineSet
EndChar

StartChar: uni008F
Encoding: 143 143 161
Width: 2048
Flags: H
LayerCount: 2
Fore
SplineSet
762.624023438 97.8876953125 m 1
 762.65625 96.8642578125 l 1
 748.793945312 98.75 738.0390625 110.649414062 738.0390625 125.025390625 c 0
 738.0390625 140.709960938 750.7734375 153.444335938 766.458984375 153.444335938 c 0
 767.768554688 153.444335938 769.057617188 153.35546875 770.3203125 153.18359375 c 0
 851.073242188 142.818359375 931.228515625 137.545898438 1014.78125 137.545898438 c 0
 1017.86132812 137.545898438 1020.93945312 137.553710938 1024.015625 137.568359375 c 0
 1557.23242188 137.568359375 1991.18359375 351.34375 1991.18359375 614 c 0
 1991.18359375 876.65625 1557.26367188 1090.41601562 1024.015625 1090.41601562 c 0
 1021.79589844 1090.42382812 1020.73828125 1090.33398438 1018.515625 1090.33398438 c 0
 875.844726562 1090.33398438 736.963867188 1073.97753906 603.6484375 1043.04003906 c 1
 571.73828125 907.256835938 554.752929688 766.856445312 554.752929688 621.395507812 c 0
 554.752929688 618.923828125 554.7578125 616.453125 554.767578125 613.984375 c 0
 554.767578125 82.015625 765.200195312 -353.18359375 1024.015625 -353.18359375 c 0
 1161.23242188 -353.18359375 1292.04785156 -226.208007812 1382.41601562 -4.767578125 c 0
 1386.85546875 5.4189453125 1396.99414062 12.515625 1408.80859375 12.515625 c 0
 1424.703125 12.515625 1437.60839844 -0.388671875 1437.60839844 -16.2841796875 c 0
 1437.60839844 -19.69921875 1437.01269531 -22.9755859375 1435.91992188 -26.015625 c 0
 1336.3359375 -270.240234375 1186.06445312 -410.015625 1024.015625 -410.015625 c 0
 728.015625 -410.015625 497.616210938 39.7763671875 497.616210938 613.984375 c 0
 497.60546875 616.573242188 497.654296875 617.734375 497.654296875 620.326171875 c 0
 497.654296875 759.646484375 512.578125 895.508789062 540.912109375 1026.40039062 c 1
 251.887695312 943.967773438 56.81640625 790.112304688 56.81640625 613.984375 c 0
 60.0224609375 531.818359375 96.6533203125 458.052734375 153.616210938 406.303710938 c 1
 153.616210938 406.303710938 l 1
 204.81640625 439.904296875 l 2
 208.334960938 442.419921875 212.649414062 443.935546875 217.30078125 443.935546875 c 0
 225.323242188 443.935546875 232.325195312 439.530273438 236.015625 433.0078125 c 2
 345.18359375 246.368164062 l 2
 345.780273438 245.322265625 346.127929688 244.106445312 346.127929688 242.817382812 c 0
 346.127929688 238.861328125 342.916015625 235.649414062 338.959960938 235.649414062 c 0
 338.34765625 235.649414062 337.751953125 235.7265625 337.18359375 235.872070312 c 2
 81.18359375 300.896484375 l 2
 68.8935546875 304.026367188 59.751953125 315.157226562 59.751953125 328.416015625 c 0
 59.751953125 338.294921875 64.8046875 347.002929688 72.4638671875 352.095703125 c 1
 72.4638671875 352.095703125 l 1
 106.51171875 374.624023438 l 1
 43.0849609375 435.290039062 2.796875 520.041015625 0.015625 613.984375 c 0
 0.015625 824.688476562 223.48828125 1003.12011719 556.303710938 1090.14355469 c 1
 643.087890625 1418.3359375 819.215820312 1637.984375 1024.015625 1637.984375 c 0
 1134.84765625 1637.984375 1240.57617188 1572.38378906 1328.63964844 1451.44042969 c 1
 1370.11230469 1481.39160156 l 2
 1373.60351562 1483.84570312 1377.87792969 1485.27929688 1382.46582031 1485.27929688 c 0
 1393.83007812 1485.27929688 1403.14648438 1476.4375 1403.90429688 1465.26367188 c 2
 1416.70410156 1234.86425781 l 2
 1416.70605469 1234.80175781 1416.69824219 1234.74707031 1416.69824219 1234.68359375 c 0
 1416.69824219 1230.72753906 1413.48730469 1227.515625 1409.53027344 1227.515625 c 0
 1408.234375 1227.515625 1407.01757812 1227.86132812 1405.96777344 1228.46386719 c 2
 1233.16796875 1334.19238281 l 2
 1224.97363281 1339.1796875 1219.50097656 1348.1640625 1219.50097656 1358.45019531 c 0
 1219.50097656 1367.96484375 1224.1875 1376.39355469 1231.37597656 1381.55175781 c 1
 1231.37597656 1381.55175781 l 1
 1282.57617188 1418.3515625 l 1
 1205.77636719 1524.08007812 1115.91992188 1581.16796875 1024.015625 1581.16796875 c 0
 852.223632812 1581.16796875 701.952148438 1389.984375 620.047851562 1105.77636719 c 1
 748.142578125 1132.93457031 879.475585938 1147.26660156 1015.61132812 1147.26660156 c 0
 1018.4140625 1147.26660156 1021.21582031 1147.25976562 1024.015625 1147.24804688 c 0
 1598.22363281 1147.24804688 2048.015625 913.0078125 2048.015625 614 c 0
 2048.015625 314.9921875 1598.22363281 80.751953125 1024.015625 80.751953125 c 0
 1022.91113281 80.75 1023.87695312 80.67578125 1022.77246094 80.67578125 c 0
 934.575195312 80.67578125 847.736328125 86.5361328125 762.624023438 97.8876953125 c 1
1547.04003906 892.51171875 m 2
 1582.55957031 912.879882812 1611.58398438 896.143554688 1611.55175781 855.120117188 c 2
 1611.55175781 436.671875 l 2
 1611.55175781 395.83984375 1582.44824219 379.103515625 1547.02441406 399.471679688 c 2
 1360.015625 506.975585938 l 1
 1360.015625 472.288085938 l 2
 1360.00683594 410.70703125 1310.01269531 360.712890625 1248.43164062 360.704101562 c 2
 793.232421875 360.704101562 l 2
 731.651367188 360.712890625 681.657226562 410.70703125 681.6484375 472.288085938 c 2
 681.6484375 819.711914062 l 2
 681.666015625 881.28515625 731.65625 931.271484375 793.232421875 931.280273438 c 2
 1248.46386719 931.280273438 l 2
 1310.04492188 931.271484375 1360.0390625 881.276367188 1360.04785156 819.696289062 c 2
 1360.04785156 785.0078125 l 1
 1547.04003906 892.51171875 l 2
EndSplineSet
EndChar

StartChar: uni0090
Encoding: 144 144 162
Width: 2048
Flags: H
LayerCount: 2
Fore
SplineSet
731.024414062 321.024414062 m 1
 731.024414062 904.127929688 l 1
 1314.12792969 904.127929688 l 1
 1314.12792969 321.024414062 l 1
 731.024414062 321.024414062 l 1
901.696289062 491.696289062 m 1
 1143.47167969 491.696289062 l 1
 1143.47167969 733.471679688 l 1
 901.696289062 733.471679688 l 1
 901.696289062 491.696289062 l 1
682.671875 -410 m 1
 682.671875 -182.448242188 l 1
 398.223632812 -182.448242188 l 2
 398.040039062 -182.448242188 397.856445312 -182.44921875 397.671875 -182.44921875 c 0
 350.850585938 -182.44921875 308.604492188 -162.799804688 278.751953125 -131.248046875 c 0
 247.200195312 -101.395507812 227.50390625 -59.1376953125 227.50390625 -12.31640625 c 0
 227.50390625 -12.1328125 227.551757812 -11.9599609375 227.551757812 -11.7763671875 c 2
 227.551757812 272.671875 l 1
 0 272.671875 l 1
 0 443.328125 l 1
 227.551757812 443.328125 l 1
 227.551757812 796.047851562 l 1
 0 796.047851562 l 1
 0 966.704101562 l 1
 227.551757812 966.704101562 l 1
 227.551757812 1251.15234375 l 2
 227.551757812 1251.3359375 227.55078125 1251.51953125 227.55078125 1251.70410156 c 0
 227.55078125 1298.52539062 247.200195312 1340.77148438 278.751953125 1370.62402344 c 0
 308.604492188 1402.17578125 350.862304688 1421.87207031 397.68359375 1421.87207031 c 0
 397.8671875 1421.87207031 398.040039062 1421.82421875 398.223632812 1421.82421875 c 2
 682.671875 1421.82421875 l 1
 682.671875 1638 l 1
 853.328125 1638 l 1
 853.328125 1421.82421875 l 1
 1206.04785156 1421.82421875 l 1
 1206.04785156 1638 l 1
 1376.70410156 1638 l 1
 1376.70410156 1421.82421875 l 1
 1661.15234375 1421.82421875 l 2
 1661.3359375 1421.82421875 1661.51953125 1421.82519531 1661.70410156 1421.82519531 c 0
 1708.52539062 1421.82519531 1750.77148438 1402.17578125 1780.62402344 1370.62402344 c 0
 1812.17578125 1340.77148438 1831.87207031 1298.51367188 1831.87207031 1251.69238281 c 0
 1831.87207031 1251.50878906 1831.82421875 1251.3359375 1831.82421875 1251.15234375 c 2
 1831.82421875 966.704101562 l 1
 2048 966.704101562 l 1
 2048 796.047851562 l 1
 1831.82421875 796.047851562 l 1
 1831.82421875 443.328125 l 1
 2048 443.328125 l 1
 2048 272.671875 l 1
 1831.82421875 272.671875 l 1
 1831.82421875 -11.7763671875 l 2
 1829.55175781 -104.912109375 1754.28808594 -180.17578125 1661.15234375 -182.448242188 c 2
 1376.70410156 -182.448242188 l 1
 1376.70410156 -410 l 1
 1206.04785156 -410 l 1
 1206.04785156 -182.448242188 l 1
 853.328125 -182.448242188 l 1
 853.328125 -410 l 1
 682.671875 -410 l 1
1661.16796875 -11.7763671875 m 1
 1661.16796875 1251.15234375 l 1
 398.223632812 1251.15234375 l 1
 398.223632812 -11.7763671875 l 1
 1661.16796875 -11.7763671875 l 1
1024 614 m 1024
EndSplineSet
EndChar

StartChar: uni0091
Encoding: 145 145 163
Width: 2048
Flags: H
LayerCount: 2
Fore
SplineSet
1424.04785156 -410 m 1
 1151.53613281 -410 l 1
 879.0078125 -277.872070312 l 1
 639.536132812 -46.6240234375 l 1
 598.223632812 143.311523438 l 1
 540.416015625 217.616210938 l 1
 416.559570312 283.696289062 l 1
 312.688476562 546.608398438 l 1
 367.0078125 688.3203125 l 1
 416.608398438 714.3203125 l 1
 367.0078125 828.719726562 l 1
 367.0078125 1216.83203125 l 1
 540.431640625 1448.04785156 l 1
 879.087890625 1638 l 1
 1333.28027344 1588.40039062 l 1
 1630.57617188 1365.42382812 l 1
 1737.91992188 1043.36035156 l 1
 1737.91992188 828.65625 l 1
 1781.58398438 779.055664062 l 1
 1795.72753906 605.631835938 l 1
 1737.91992188 456.9921875 l 1
 1737.91992188 143.200195312 l 1
 1547.984375 -277.984375 l 1
 1424.04785156 -410 l 1
1106.9921875 -84.591796875 m 1
 1106.9921875 -84.591796875 l 1
 1170.87988281 -107.120117188 l 1
 1385.37597656 -107.120117188 l 1
 1519.95214844 -54.736328125 l 1
 1433.74414062 -54.736328125 l 1
 1227.24804688 -84.576171875 l 1
 1106.9921875 -84.591796875 l 1
1014.06445312 517.6796875 m 1
 1014.06445312 517.6796875 l 1
 979.171875 516.095703125 946.422851562 504.879882812 918.9921875 486.799804688 c 0
 919.103515625 486.463867188 930.528320312 449.055664062 949.072265625 437.935546875 c 0
 950.671875 436.944335938 952.671875 435.711914062 954.896484375 434.3203125 c 0
 981.306640625 415.5078125 1013.31054688 403.522460938 1047.59960938 401.232421875 c 0
 1047.66796875 401.231445312 1047.73632812 401.231445312 1047.80566406 401.231445312 c 0
 1060.66210938 401.231445312 1073.02148438 403.59765625 1084.40039062 407.856445312 c 0
 1117.29199219 418.118164062 1145.0859375 439.5859375 1163.34375 468 c 1
 1126.27246094 485.83984375 1086.80273438 501.166992188 1046.79980469 513.103515625 c 0
 1036.55664062 516.071289062 1025.73046875 517.662109375 1014.53613281 517.662109375 c 0
 1014.38085938 517.662109375 1014.25097656 517.680664062 1014.09570312 517.6796875 c 2
 1014.06445312 517.6796875 l 1
1587.37597656 554.48046875 m 2
 1586.00195312 554.515625 1584.62304688 554.533203125 1583.24023438 554.533203125 c 0
 1566.40429688 554.533203125 1550.23730469 551.846679688 1535.02441406 546.944335938 c 0
 1500.84277344 532.095703125 1470.56542969 510.545898438 1445.53613281 483.631835938 c 1
 1506.06445312 462.559570312 l 2
 1521.51171875 457.493164062 1538.03027344 454.690429688 1555.15234375 454.639648438 c 0
 1556.25390625 454.606445312 1557.36035156 454.588867188 1558.46972656 454.588867188 c 0
 1582.19824219 454.588867188 1604.16503906 462.409179688 1621.88769531 475.536132812 c 0
 1670.16015625 512.65625 1655.87207031 546.608398438 1655.72753906 546.944335938 c 0
 1633.59570312 551.66015625 1610.85546875 554.248046875 1587.37597656 554.463867188 c 2
 1587.37597656 554.48046875 l 2
EndSplineSet
EndChar

StartChar: uni0092
Encoding: 146 146 164
Width: 2048
Flags: H
LayerCount: 2
Fore
SplineSet
253.727539062 1125.16796875 m 1
 523.280273438 1062.95996094 l 1
 841.215820312 1097.51953125 l 1
 1101.15234375 1097.51953125 l 1
 1277.328125 1062.95996094 l 1
 1387.44042969 1076.41601562 l 1
 1453.50390625 1076.41601562 l 1
 1481.82421875 997.759765625 l 1
 1349.69628906 909.6796875 l 1
 1204.97558594 878.223632812 l 1
 1158.57617188 885.103515625 l 1
 988.975585938 941.280273438 l 1
 1088.17578125 885.103515625 l 1
 1415.6796875 815.295898438 l 1
 1601.28027344 771.280273438 l 1
 1755.45605469 717.776367188 l 1
 1941.05566406 661.15234375 l 1
 2048.015625 573.072265625 l 1
 1994.52832031 497.568359375 l 1
 1824.63964844 497.568359375 l 1
 1533.15234375 573.072265625 l 1
 1400.95996094 618.112304688 l 1
 1268.81640625 645.82421875 l 1
 1522.70410156 547.919921875 l 1
 1714.60839844 459.807617188 l 1
 1953.69628906 330.83203125 l 1
 1972.57617188 239.631835938 l 1
 1843.59960938 208.17578125 l 1
 1453.50390625 349.744140625 l 1
 1183.10351562 439.055664062 l 1
 1471.10351562 286.81640625 l 1
 1730.30371094 120.080078125 l 1
 1730.30371094 120.080078125 1717.72753906 79.18359375 1714.57617188 66.591796875 c 0
 1711.42382812 54 1620.17578125 19.408203125 1620.17578125 19.408203125 c 1
 1374.28808594 153.48828125 l 1
 1037.95214844 286.799804688 l 1
 977.423828125 286.799804688 l 1
 897.568359375 310.799804688 l 1
 1220.62402344 -30.912109375 l 1
 1248.94433594 -106.416015625 l 1
 1164 -147.311523438 l 1
 805.360351562 107.50390625 l 1
 723.568359375 186.16015625 l 1
 361.791992188 349.711914062 l 1
 103.82421875 538.51171875 l 1
 0 629.711914062 l 1
 103.82421875 909.711914062 l 1
 253.727539062 1125.16796875 l 1
EndSplineSet
EndChar

StartChar: uni0093
Encoding: 147 147 165
Width: 2048
Flags: H
LayerCount: 2
Fore
SplineSet
957.055664062 1638 m 1
 1033.53613281 1638 l 1
 1098.68847656 1555.85644531 l 1
 1098.68847656 1414.22363281 l 1
 1073.20019531 1349.07226562 l 1
 1217.6640625 1300.91210938 l 1
 1315.26367188 1214.16015625 l 1
 1514.63964844 1077.13574219 l 1
 1651.02441406 969.48828125 l 1
 1815.31152344 856.17578125 l 1
 1874.51171875 799.200195312 l 1
 1843.59960938 791.024414062 l 1
 1785.18359375 807.024414062 l 1
 1726.9921875 819.295898438 l 1
 1644.19238281 892.448242188 l 1
 1485.95214844 959.072265625 l 1
 1308.24023438 1077.07226562 l 1
 1217.59960938 1150.671875 l 1
 1175.10351562 994.879882812 l 1
 1197.75976562 856.080078125 l 1
 1175.10351562 790.927734375 l 1
 1217.59960938 581.328125 l 1
 1217.59960938 357.551757812 l 1
 1197.77636719 221.551757812 l 1
 1197.77636719 3.4404296875 l 1
 1175.12011719 -209.0078125 l 1
 1237.44042969 -279.82421875 l 1
 1285.59960938 -339.311523438 l 1
 1237.44042969 -381.807617188 l 1
 1129.79199219 -308.208007812 l 1
 1073.13574219 -279.887695312 l 1
 1098.62402344 -172.255859375 l 1
 1059.02441406 51.7763671875 l 1
 1073.18359375 179.248046875 l 1
 1005.20019531 465.34375 l 1
 949.568359375 255.120117188 l 1
 915.583984375 121.984375 l 1
 880.576171875 -24.7041015625 l 1
 860.751953125 -186.208007812 l 1
 906.080078125 -361.83984375 l 1
 940.064453125 -410 l 1
 860.751953125 -410 l 1
 787.15234375 -381.6796875 l 1
 770.16015625 -279.711914062 l 1
 787.15234375 -228.719726562 l 1
 744.65625 23.3916015625 l 1
 787.15234375 179.18359375 l 1
 787.15234375 598.383789062 l 1
 815.471679688 791.0078125 l 1
 815.471679688 943.967773438 l 1
 787.15234375 1050.97558594 l 1
 648.240234375 892.48046875 l 1
 529.375976562 725.856445312 l 1
 563.360351562 657.872070312 l 1
 563.360351562 629.6640625 l 1
 542.736328125 621.6640625 l 1
 516.944335938 633.568359375 l 1
 486.83203125 581.375976562 l 1
 464.17578125 558.719726562 l 1
 407.51953125 541.727539062 l 1
 384.864257812 581.375976562 l 1
 447.18359375 689.024414062 l 1
 486.83203125 819.328125 l 1
 512.3203125 918.528320312 l 1
 676.624023438 1125.37597656 l 1
 787.024414062 1267.0078125 l 1
 906 1349.15234375 l 1
 922.9921875 1380.30371094 l 1
 906 1425.63183594 l 1
 880.51171875 1470.95996094 l 1
 892.431640625 1555.93554688 l 1
 906.015625 1612.59179688 l 1
 957.055664062 1638 l 1
955.15234375 1646 m 1
 1037.39160156 1646 l 1
 1106.671875 1558.63964844 l 1
 1106.671875 1412.70410156 l 1
 1083.69628906 1353.984375 l 1
 1221.72753906 1307.96777344 l 1
 1320.22363281 1220.46386719 l 1
 1519.61621094 1083.40820312 l 1
 1655.79199219 975.919921875 l 1
 1820.41601562 862.3203125 l 1
 1820.87988281 861.872070312 l 1
 1890.38378906 795.024414062 l 1
 1843.61621094 782.671875 l 1
 1783.34375 799.248046875 l 1
 1723.328125 811.904296875 l 1
 1639.93554688 885.50390625 l 1
 1482.20800781 951.904296875 l 1
 1303.24804688 1070.78417969 l 1
 1222.12792969 1136.68847656 l 1
 1183.328125 994.416015625 l 1
 1206.03222656 855.328125 l 1
 1183.42382812 790.3359375 l 1
 1225.63183594 582.080078125 l 1
 1225.63183594 356.912109375 l 1
 1225.55175781 356.3359375 l 1
 1205.80761719 220.944335938 l 1
 1205.80761719 2.9921875 l 1
 1205.80761719 2.576171875 l 1
 1183.51953125 -206.383789062 l 1
 1243.72753906 -274.81640625 l 1
 1296.70410156 -340.255859375 l 1
 1238.12792969 -391.935546875 l 1
 1125.79199219 -315.135742188 l 1
 1063.95214844 -284.223632812 l 1
 1090.52832031 -172.032226562 l 1
 1050.95996094 51.248046875 l 1
 1065.10351562 178.48046875 l 1
 1004.75195312 432.448242188 l 1
 957.263671875 253.024414062 l 1
 923.311523438 120.015625 l 1
 888.431640625 -26.17578125 l 1
 868.84765625 -185.6796875 l 1
 913.423828125 -358.48046875 l 1
 955.471679688 -418.047851562 l 1
 859.232421875 -418.047851562 l 1
 779.935546875 -387.551757812 l 1
 761.856445312 -279.103515625 l 1
 778.84765625 -228.127929688 l 1
 736.400390625 23.744140625 l 1
 779.072265625 180.208007812 l 1
 779.072265625 598.975585938 l 1
 779.15234375 599.551757812 l 1
 807.391601562 791.551757812 l 1
 807.391601562 942.975585938 l 1
 783.18359375 1034.44824219 l 1
 654.448242188 887.551757812 l 1
 538.608398438 725.16796875 l 1
 571.311523438 659.776367188 l 1
 571.311523438 624.192382812 l 1
 542.400390625 613.072265625 l 1
 520.17578125 623.328125 l 1
 493.232421875 576.576171875 l 1
 468.400390625 551.744140625 l 1
 403.727539062 532.3359375 l 1
 375.631835938 581.50390625 l 1
 439.791992188 692.3359375 l 1
 479.120117188 821.583984375 l 1
 504.9921875 922.208007812 l 1
 506.047851562 923.536132812 l 1
 670.3515625 1130.27246094 l 1
 781.536132812 1272.81640625 l 1
 899.935546875 1354.57617188 l 1
 914.3359375 1380.84765625 l 1
 898.84765625 1422.16015625 l 1
 872.272460938 1469.37597656 l 1
 884.704101562 1557.79199219 l 1
 899.103515625 1618.06445312 l 1
 955.15234375 1646 l 1
1029.6484375 1630 m 1
 958.927734375 1630 l 1
 912.959960938 1607.02441406 l 1
 900.3359375 1554.36816406 l 1
 888.84765625 1472.44824219 l 1
 913.311523438 1428.94433594 l 1
 931.807617188 1379.61621094 l 1
 912.143554688 1343.56835938 l 1
 792.608398438 1261.04003906 l 1
 682.896484375 1120.36816406 l 1
 519.696289062 914.864257812 l 1
 494.528320312 817.040039062 l 1
 454.528320312 685.83984375 l 1
 454.064453125 685.040039062 l 1
 394.047851562 581.375976562 l 1
 411.263671875 551.232421875 l 1
 459.887695312 565.82421875 l 1
 480.368164062 586.303710938 l 1
 513.551757812 643.904296875 l 1
 542.912109375 630.3515625 l 1
 555.263671875 635.15234375 l 1
 555.263671875 655.952148438 l 1
 519.967773438 726.543945312 l 1
 642.112304688 897.744140625 l 1
 790.912109375 1067.53613281 l 1
 823.34375 944.9921875 l 1
 823.34375 790.400390625 l 1
 823.263671875 789.82421875 l 1
 795.024414062 597.82421875 l 1
 795.024414062 178.17578125 l 1
 752.719726562 22.9755859375 l 1
 795.248046875 -229.360351562 l 1
 778.255859375 -280.3515625 l 1
 794.17578125 -375.856445312 l 1
 862.17578125 -402.015625 l 1
 924.576171875 -402.015625 l 1
 898.639648438 -365.215820312 l 1
 852.576171875 -186.704101562 l 1
 872.639648438 -23.2958984375 l 1
 872.751953125 -22.8642578125 l 1
 907.791992188 123.952148438 l 1
 941.776367188 257.087890625 l 1
 997.440429688 467.375976562 l 1
 1012.95996094 467.18359375 l 1
 1081.26367188 179.744140625 l 1
 1067.07226562 52.0322265625 l 1
 1106.84765625 -172.223632812 l 1
 1082.43164062 -275.311523438 l 1
 1133.90429688 -301.055664062 l 1
 1236.86425781 -371.456054688 l 1
 1274.59179688 -338.16015625 l 1
 1231.39160156 -284.767578125 l 1
 1166.86425781 -211.440429688 l 1
 1189.85644531 4.080078125 l 1
 1189.85644531 222.272460938 l 1
 1189.93554688 222.84765625 l 1
 1209.6796875 358.240234375 l 1
 1209.6796875 580.639648438 l 1
 1166.91210938 791.616210938 l 1
 1189.63183594 856.927734375 l 1
 1167.02441406 995.440429688 l 1
 1213.20019531 1164.75195312 l 1
 1313.07226562 1083.59960938 l 1
 1489.83984375 966.223632812 l 1
 1648.59179688 899.391601562 l 1
 1730.79980469 826.767578125 l 1
 1787.39160156 814.83203125 l 1
 1843.72753906 799.34375 l 1
 1858.79980469 803.328125 l 1
 1810.28808594 850 l 1
 1646.11230469 963.248046875 l 1
 1509.93554688 1070.71972656 l 1
 1310.3515625 1207.85644531 l 1
 1309.984375 1208.19238281 l 1
 1213.58398438 1293.85644531 l 1
 1062.68847656 1344.16015625 l 1
 1090.70410156 1415.74414062 l 1
 1090.70410156 1553.08789062 l 1
 1029.6484375 1630 l 1
EndSplineSet
EndChar

StartChar: uni0094
Encoding: 148 148 166
Width: 2048
Flags: H
LayerCount: 2
Fore
SplineSet
1867.74414062 1170.63964844 m 2
 1076.97558594 1170.63964844 l 1
 1107.43066406 1225.58789062 1124.77539062 1288.79003906 1124.77539062 1356.01171875 c 0
 1124.77539062 1406.04785156 1115.25 1454.48339844 1097.77636719 1498.3203125 c 1
 1867.74414062 1498.3203125 l 2
 1958.16992188 1498.3203125 2031.58398438 1424.90527344 2031.58398438 1334.48046875 c 0
 2031.58398438 1244.0546875 1958.16992188 1170.63964844 1867.74414062 1170.63964844 c 2
408.543945312 1170.63964844 m 1
 163.83984375 1170.63964844 l 2
 73.4140625 1170.63964844 0 1244.0546875 0 1334.48046875 c 0
 0 1424.90527344 73.4140625 1498.3203125 163.83984375 1498.3203125 c 2
 387.6796875 1498.3203125 l 1
 370.208984375 1454.48828125 360.600585938 1406.68457031 360.600585938 1356.65332031 c 0
 360.600585938 1289.4375 378.028320312 1225.61523438 408.48046875 1170.671875 c 2
 408.543945312 1170.63964844 l 1
1867.74414062 449.776367188 m 2
 1743.56835938 449.776367188 l 1
 1767.02734375 499.038085938 1780.16015625 554.150390625 1780.16015625 612.3046875 c 0
 1780.16015625 612.633789062 1780.36914062 613.287109375 1780.36816406 613.616210938 c 0
 1780.36914062 613.936523438 1780.36914062 614.2578125 1780.36914062 614.579101562 c 0
 1780.36914062 672.736328125 1767.02734375 728.17578125 1743.56835938 777.440429688 c 1
 1867.74414062 777.440429688 l 2
 1958.16503906 777.440429688 2031.57617188 704.029296875 2031.57617188 613.608398438 c 0
 2031.57617188 523.186523438 1958.16503906 449.776367188 1867.74414062 449.776367188 c 2
1052.55957031 449.776367188 m 1
 163.83984375 449.776367188 l 2
 73.4189453125 449.776367188 0.0078125 523.186523438 0.0078125 613.608398438 c 0
 0.0078125 704.029296875 73.4189453125 777.440429688 163.83984375 777.440429688 c 2
 1052.57617188 777.440429688 l 1
 1029.11621094 728.181640625 1015.98339844 673.073242188 1015.98339844 614.921875 c 0
 1015.98339844 614.594726562 1015.77539062 613.943359375 1015.77636719 613.616210938 c 0
 1015.77539062 613.302734375 1015.77441406 612.990234375 1015.77441406 612.676757812 c 0
 1015.77441406 554.517578125 1029.11621094 499.075195312 1052.57617188 449.807617188 c 2
 1052.55957031 449.776367188 l 1
1867.74414062 -271.120117188 m 2
 1219.29589844 -271.120117188 l 1
 1242.75585938 -221.857421875 1255.88867188 -166.74609375 1255.88867188 -108.590820312 c 0
 1255.88867188 -108.26171875 1256.09667969 -107.608398438 1256.09570312 -107.280273438 c 0
 1256.09667969 -106.958984375 1256.09765625 -106.638671875 1256.09765625 -106.317382812 c 0
 1256.09765625 -48.16015625 1242.75585938 7.279296875 1219.29589844 56.5439453125 c 1
 1867.74414062 56.5439453125 l 2
 1958.16503906 56.5439453125 2031.57617188 -16.8662109375 2031.57617188 -107.288085938 c 0
 2031.57617188 -197.708984375 1958.16503906 -271.120117188 1867.74414062 -271.120117188 c 2
528.288085938 -271.120117188 m 1
 163.83984375 -271.120117188 l 2
 73.4189453125 -271.120117188 0.0078125 -197.708984375 0.0078125 -107.288085938 c 0
 0.0078125 -16.8662109375 73.4189453125 56.5439453125 163.83984375 56.5439453125 c 2
 528.303710938 56.5439453125 l 1
 504.844726562 7.2822265625 491.711914062 -47.830078125 491.711914062 -105.985351562 c 0
 491.711914062 -106.30859375 491.502929688 -106.95703125 491.50390625 -107.280273438 c 0
 491.502929688 -107.592773438 491.502929688 -107.90625 491.502929688 -108.21875 c 0
 491.502929688 -166.37890625 504.844726562 -221.821289062 528.303710938 -271.087890625 c 2
 528.288085938 -271.120117188 l 1
448 1334 m 0
 448 1501.89453125 580.5234375 1638 744 1638 c 0
 907.4765625 1638 1040 1501.89453125 1040 1334 c 0
 1040 1166.10546875 907.4765625 1030 744 1030 c 0
 580.5234375 1030 448 1166.10546875 448 1334 c 0
1104 582 m 0
 1104 741.057617188 1236.5234375 870 1400 870 c 0
 1563.4765625 870 1696 741.057617188 1696 582 c 0
 1696 422.942382812 1563.4765625 294 1400 294 c 0
 1236.5234375 294 1104 422.942382812 1104 582 c 0
608 -106 m 0
 608 61.89453125 736.942382812 198 896 198 c 0
 1055.05761719 198 1184 61.89453125 1184 -106 c 0
 1184 -273.89453125 1055.05761719 -410 896 -410 c 0
 736.942382812 -410 608 -273.89453125 608 -106 c 0
EndSplineSet
EndChar

StartChar: uni0095
Encoding: 149 149 167
Width: 2048
Flags: H
LayerCount: 2
Fore
SplineSet
0 969.551757812 m 0
 -0.001953125 970.041992188 -0.001953125 970.532226562 -0.001953125 971.022460938 c 0
 -0.001953125 1213.56445312 196.911132812 1410.47851562 439.453125 1410.47851562 c 0
 439.944335938 1410.47851562 440.40625 1410.44921875 440.896484375 1410.44824219 c 2
 1433.59960938 1410.44824219 l 1
 1457.13085938 1475.59960938 1498.21191406 1531.92578125 1551.6484375 1574 c 0
 1601.1328125 1613.96484375 1664.08398438 1637.90722656 1732.58300781 1637.90722656 c 0
 1733.37304688 1637.90722656 1734.31542969 1638.00683594 1735.10351562 1638 c 0
 1736.93066406 1638.03320312 1738.76074219 1638.04980469 1740.59472656 1638.04980469 c 0
 1825.66992188 1638.04980469 1902.421875 1602.58398438 1956.97558594 1545.55175781 c 0
 2013.22363281 1489.95019531 2048.09570312 1412.77050781 2048.09570312 1327.50976562 c 0
 2048.09570312 1325.74023438 2048.03027344 1324.03417969 2048 1322.27246094 c 0
 2048.02148438 1320.79882812 2048.03222656 1319.32324219 2048.03222656 1317.84570312 c 0
 2048.03222656 1233.61914062 2013.15136719 1157.5546875 1956.97558594 1103.24804688 c 0
 1902.13183594 1047.03222656 1825.56152344 1012.10742188 1740.89941406 1012.10742188 c 0
 1738.93652344 1012.10742188 1737.05761719 1012.18652344 1735.10351562 1012.22363281 c 0
 1734.31054688 1012.21777344 1733.515625 1012.21386719 1732.72070312 1012.21386719 c 0
 1664.22167969 1012.21386719 1601.11621094 1036.25878906 1551.63183594 1076.22363281 c 0
 1498.20214844 1118.30078125 1457.12597656 1174.62597656 1433.59960938 1239.77636719 c 1
 440.896484375 1239.77636719 l 2
 440.654296875 1239.77636719 440.413085938 1239.77734375 440.170898438 1239.77734375 c 0
 291.41015625 1239.77734375 170.634765625 1119.00195312 170.634765625 970.241210938 c 0
 170.634765625 969.0390625 170.65625 967.90234375 170.671875 966.704101562 c 0
 170.627929688 964.75 170.60546875 962.791015625 170.60546875 960.827148438 c 0
 170.60546875 888.041015625 201.205078125 822.465820312 250.3203125 776.127929688 c 0
 298.209960938 728.625976562 364.12109375 699.266601562 436.834960938 699.266601562 c 0
 438.201171875 699.266601562 439.53515625 699.307617188 440.896484375 699.328125 c 2
 1607.10351562 699.328125 l 2
 1610 699.38671875 1612.90332031 699.415039062 1615.81347656 699.415039062 c 0
 1735.00683594 699.415039062 1842.70703125 650.393554688 1920 571.328125 c 0
 1999.06542969 494.034179688 2048.16992188 386.21875 2048.16992188 267.025390625 c 0
 2048.16992188 264.12109375 2048.05761719 261.338867188 2048 258.448242188 c 0
 2048.05859375 255.551757812 2048.08789062 252.6484375 2048.08789062 249.739257812 c 0
 2048.08789062 130.544921875 1999.06640625 22.845703125 1920 -54.4482421875 c 0
 1842.70703125 -133.513671875 1734.890625 -182.619140625 1615.69726562 -182.619140625 c 0
 1612.78710938 -182.619140625 1610 -182.505859375 1607.10351562 -182.448242188 c 2
 614.400390625 -182.448242188 l 1
 590.869140625 -247.599609375 549.788085938 -303.92578125 496.3515625 -346 c 0
 446.8671875 -385.96484375 383.916015625 -409.907226562 315.416992188 -409.907226562 c 0
 314.622070312 -409.907226562 313.673828125 -410.006835938 312.879882812 -410 c 0
 311.59375 -410.015625 310.306640625 -410.024414062 309.016601562 -410.024414062 c 0
 224.192382812 -410.024414062 147.498046875 -375.184570312 92.431640625 -318.975585938 c 0
 36.015625 -262.258789062 1.130859375 -184.104492188 1.130859375 -97.8662109375 c 0
 1.130859375 74.572265625 140.684570312 214.73828125 312.879882812 215.776367188 c 0
 313.470703125 215.779296875 314.060546875 215.78125 314.65234375 215.78125 c 0
 383.78125 215.78125 447.548828125 191.763671875 497.776367188 151.776367188 c 0
 551.560546875 110.481445312 592.439453125 53.8583984375 614.400390625 -11.7763671875 c 1
 1607.10351562 -11.7763671875 l 2
 1608.13476562 -11.7880859375 1609.16796875 -11.7939453125 1610.20117188 -11.7939453125 c 0
 1757.67285156 -11.7939453125 1877.40136719 107.934570312 1877.40136719 255.40625 c 0
 1877.40136719 256.440429688 1877.33984375 257.416992188 1877.328125 258.448242188 c 0
 1877.33984375 259.479492188 1877.34570312 260.51171875 1877.34570312 261.544921875 c 0
 1877.34570312 409.016601562 1757.6171875 528.745117188 1610.14550781 528.745117188 c 0
 1609.11132812 528.745117188 1608.13476562 528.68359375 1607.10351562 528.671875 c 2
 440.879882812 528.671875 l 2
 440.395507812 528.670898438 439.911132812 528.669921875 439.42578125 528.669921875 c 0
 196.883789062 528.669921875 -0.0302734375 725.583007812 -0.0302734375 968.125976562 c 0
 -0.0302734375 968.610351562 -0.001953125 969.067382812 0 969.551757812 c 0
1592.89648438 1322.27246094 m 0
 1592.89355469 1321.93066406 1592.89257812 1321.58984375 1592.89257812 1321.24804688 c 0
 1592.89257812 1282.828125 1609.31152344 1248.25292969 1635.56835938 1224.14355469 c 0
 1661.25976562 1198.63183594 1696.63671875 1182.86035156 1735.66894531 1182.86035156 c 0
 1736.44238281 1182.86035156 1737.19726562 1182.88378906 1737.96777344 1182.89648438 c 0
 1738.44335938 1182.890625 1738.91992188 1182.88867188 1739.39648438 1182.88867188 c 0
 1777.39453125 1182.88867188 1811.69824219 1198.703125 1836.09570312 1224.14355469 c 0
 1861.57714844 1249.08007812 1877.40039062 1283.84765625 1877.40039062 1322.28125 c 0
 1877.40039062 1323.24316406 1877.36328125 1324.16308594 1877.34375 1325.12011719 c 0
 1877.34570312 1325.40234375 1877.34667969 1325.68554688 1877.34667969 1325.96777344 c 0
 1877.34667969 1364.56933594 1861.57324219 1399.50976562 1836.09570312 1424.671875 c 0
 1811.453125 1450.96777344 1776.41601562 1467.40820312 1737.56933594 1467.40820312 c 0
 1736.73535156 1467.40820312 1735.95019531 1467.359375 1735.12011719 1467.34375 c 0
 1734.97265625 1467.34472656 1734.82421875 1467.34472656 1734.67675781 1467.34472656 c 0
 1695.65527344 1467.34472656 1660.44726562 1450.96777344 1635.56835938 1424.671875 c 0
 1609.23730469 1399.26757812 1592.85058594 1363.62304688 1592.85058594 1324.18066406 c 0
 1592.85058594 1323.53417969 1592.88769531 1322.91699219 1592.89648438 1322.27246094 c 0
170.671875 -99.9521484375 m 0
 170.668945312 -100.29296875 170.66796875 -100.633789062 170.66796875 -100.975585938 c 0
 170.66796875 -139.396484375 187.087890625 -173.970703125 213.34375 -198.080078125 c 0
 239.036132812 -223.591796875 274.413085938 -239.36328125 313.444335938 -239.36328125 c 0
 314.21875 -239.36328125 314.97265625 -239.340820312 315.744140625 -239.328125 c 0
 316.219726562 -239.333007812 316.696289062 -239.3359375 317.172851562 -239.3359375 c 0
 355.170898438 -239.3359375 389.473632812 -223.520507812 413.872070312 -198.080078125 c 0
 439.353515625 -173.143554688 455.17578125 -138.375976562 455.17578125 -99.9423828125 c 0
 455.17578125 -98.9814453125 455.139648438 -98.060546875 455.120117188 -97.103515625 c 0
 455.122070312 -96.8212890625 455.122070312 -96.5390625 455.122070312 -96.255859375 c 0
 455.122070312 -57.654296875 439.348632812 -22.71484375 413.872070312 2.4482421875 c 0
 389.228515625 28.744140625 354.19140625 45.1845703125 315.345703125 45.1845703125 c 0
 314.51171875 45.1845703125 313.7265625 45.134765625 312.896484375 45.1201171875 c 0
 312.748046875 45.1201171875 312.600585938 45.12109375 312.453125 45.12109375 c 0
 273.431640625 45.12109375 238.22265625 28.744140625 213.34375 2.4482421875 c 0
 187.012695312 -22.95703125 170.625976562 -58.6015625 170.625976562 -98.04296875 c 0
 170.625976562 -98.689453125 170.663085938 -99.3076171875 170.671875 -99.9521484375 c 0
1735.10351562 1325.10351562 m 1024
312.896484375 -97.103515625 m 1024
EndSplineSet
EndChar

StartChar: uni0096
Encoding: 150 150 168
Width: 2048
Flags: H
LayerCount: 2
Fore
SplineSet
1985.77636719 1342.9921875 m 1
 1985.79199219 1343.04003906 l 2
 2020.08984375 1342.94335938 2047.91894531 1315.11328125 2048.015625 1280.81640625 c 2
 2048.015625 19.4404296875 l 2
 2048.015625 -14.7841796875 1985.79199219 -42.7841796875 1985.79199219 -42.7841796875 c 1
 62.2236328125 -216.576171875 l 1
 62.2236328125 -216.576171875 0 -188.576171875 0 -154.3515625 c 2
 0 1444.43164062 l 2
 0.0966796875 1478.72949219 27.9267578125 1506.55957031 62.2236328125 1506.65625 c 2
 1985.77636719 1342.9921875 l 1
400.400390625 1171.40820312 m 2
 400.448242188 175.696289062 l 2
 400.448242188 175.072265625 401.072265625 174.448242188 401.072265625 173.200195312 c 0
 401.30078125 168.665039062 402.170898438 164.25 403.568359375 160.127929688 c 0
 404.09765625 156.432617188 405.172851562 152.833984375 406.671875 149.551757812 c 0
 408.31640625 146.489257812 410.184570312 143.583984375 412.272460938 140.83203125 c 0
 414.663085938 136.869140625 417.575195312 133.342773438 420.9921875 130.255859375 c 0
 421.616210938 129.631835938 421.616210938 129.0078125 422.240234375 128.383789062 c 0
 425.197265625 126.296875 428.3125 124.424804688 431.568359375 122.784179688 c 0
 434.325195312 120.907226562 437.244140625 119.239257812 440.288085938 117.807617188 c 0
 447.267578125 115.188476562 454.844726562 113.650390625 462.688476562 113.456054688 c 2
 1707.28027344 180.192382812 l 2
 1714.71386719 180.383789062 1721.88183594 181.927734375 1728.43164062 184.543945312 c 0
 1730.12597656 185.0625 1731.81054688 185.698242188 1733.40820312 186.416015625 c 0
 1734.65625 187.040039062 1736.51171875 187.040039062 1737.75976562 188.288085938 c 0
 1739.79296875 189.779296875 1741.64355469 191.423828125 1743.36035156 193.263671875 c 0
 1747.07910156 195.485351562 1750.39746094 198.188476562 1753.31152344 201.360351562 c 0
 1755.80664062 204.53125 1758.08105469 207.833984375 1760.16015625 211.311523438 c 0
 1762.0546875 214.6796875 1763.734375 218.243164062 1765.13574219 221.887695312 c 0
 1766.734375 225.524414062 1767.63671875 229.555664062 1767.63671875 233.780273438 c 0
 1767.63671875 233.965820312 1767.63574219 234.151367188 1767.63183594 234.3359375 c 0
 1768.52832031 236.905273438 1769.171875 239.6484375 1769.50390625 242.431640625 c 2
 1769.50390625 1104.71972656 l 2
 1769.40722656 1139.01757812 1741.57714844 1166.84765625 1707.28027344 1166.94433594 c 2
 462.624023438 1233.63183594 l 2
 428.326171875 1233.53515625 400.497070312 1205.70507812 400.400390625 1171.40820312 c 2
833.50390625 673.568359375 m 1
 833.551757812 673.551757812 l 1
 815.6328125 672.841796875 799.633789062 664.55078125 788.751953125 651.759765625 c 2
 524.896484375 343.727539062 l 1
 524.896484375 1109.13574219 l 1
 1644.89648438 1042.46386719 l 1
 1644.89648438 469.263671875 l 1
 1450.25585938 766.288085938 l 2
 1439.75976562 785.341796875 1419.49707031 798.193359375 1396.22363281 798.193359375 c 0
 1380.10546875 798.193359375 1365.42285156 791.99609375 1354.43164062 781.856445312 c 2
 1040.17578125 494.975585938 l 1
 880.17578125 655.51953125 l 2
 868.912109375 666.71484375 853.427734375 673.629882812 836.30859375 673.629882812 c 0
 835.368164062 673.629882812 834.43359375 673.609375 833.50390625 673.568359375 c 1
1042.68847656 1000.27246094 m 0
 964.3515625 1000.27246094 882.688476562 923.599609375 882.688476562 846.927734375 c 0
 882.688476562 770.255859375 964.3515625 693.583984375 1042.68847656 693.583984375 c 0
 1121.02441406 693.583984375 1196.03222656 770.255859375 1196.03222656 846.927734375 c 0
 1196.03222656 923.599609375 1121.08789062 1000.27246094 1042.68847656 1000.27246094 c 0
EndSplineSet
EndChar

StartChar: uni0097
Encoding: 151 151 169
Width: 2048
Flags: H
LayerCount: 2
Fore
SplineSet
299.51953125 -110.48046875 m 1
 207.21875 -17.8740234375 132.900390625 91.447265625 80.6396484375 213.360351562 c 0
 29.0234375 333.56640625 0.43359375 465.9609375 0.43359375 604.981445312 c 0
 0.43359375 607.80078125 -0.0234375 611.185546875 0 614 c 0
 -0.0234375 616.814453125 -0.03515625 619.630859375 -0.03515625 622.450195312 c 0
 -0.03515625 761.470703125 29.0234375 894.43359375 80.6396484375 1014.63964844 c 0
 132.900390625 1136.55273438 207.21875 1245.87402344 299.51953125 1338.48046875 c 1
 409.599609375 1228.40039062 l 1
 331.022460938 1149.59863281 267.61328125 1056.74316406 222.719726562 953.200195312 c 0
 178.498046875 851.44921875 153.974609375 739.190429688 153.974609375 621.249023438 c 0
 153.974609375 618.998046875 153.58203125 616.247070312 153.599609375 614 c 0
 153.578125 611.497070312 153.567382812 608.9921875 153.567382812 606.484375 c 0
 153.567382812 489.375 178.012695312 377.369140625 221.440429688 276.080078125 c 0
 266.481445312 171.9140625 330.3515625 78.5966796875 409.599609375 -0.400390625 c 1
 299.51953125 -110.48046875 l 1
588.799804688 178.799804688 m 1
 533.796875 234.12890625 489.4765625 299.364257812 458.240234375 372.080078125 c 0
 427.104492188 444.444335938 409.85546875 524.16796875 409.85546875 607.888671875 c 0
 409.85546875 609.817382812 409.58203125 612.075195312 409.599609375 614 c 0
 409.58203125 615.924804688 409.572265625 617.850585938 409.572265625 619.779296875 c 0
 409.572265625 703.500976562 427.104492188 783.555664062 458.240234375 855.919921875 c 0
 489.4765625 928.635742188 533.796875 993.87109375 588.799804688 1049.20019531 c 1
 698.879882812 939.120117188 l 2
 657.598632812 897.596679688 624.1875 848.827148438 600.3203125 794.48046875 c 0
 576.565429688 738.885742188 563.4140625 677.696289062 563.4140625 613.458984375 c 0
 563.4140625 550.377929688 576.088867188 489.590820312 599.040039062 434.799804688 c 0
 623.057617188 379.831054688 656.928710938 330.599609375 698.879882812 288.879882812 c 1
 588.799804688 178.799804688 l 1
1024 409.200195312 m 0
 911.122070312 409.533203125 819.533203125 501.122070312 819.200195312 614 c 0
 819.200195312 614.078125 819.200195312 614.155273438 819.200195312 614.233398438 c 0
 819.200195312 727.1328125 910.860351562 818.793945312 1023.75976562 818.793945312 c 0
 1080.33007812 818.793945312 1131.59375 795.806640625 1168.63964844 758.639648438 c 0
 1205.80957031 721.689453125 1228.83300781 670.524414062 1228.83300781 614.025390625 c 0
 1228.83300781 557.525390625 1205.80957031 506.310546875 1168.63964844 469.360351562 c 0
 1132.76855469 432.234375 1082.47167969 409.134765625 1026.82128906 409.134765625 c 0
 1025.86523438 409.134765625 1024.95214844 409.186523438 1024 409.200195312 c 0
1459.20019531 178.799804688 m 1
 1349.12011719 288.879882812 l 2
 1390.40136719 330.403320312 1423.8125 379.172851562 1447.6796875 433.51953125 c 0
 1471.43457031 489.114257812 1484.5859375 550.303710938 1484.5859375 614.541015625 c 0
 1484.5859375 677.622070312 1471.91113281 738.409179688 1448.95996094 793.200195312 c 0
 1424.94238281 848.168945312 1391.07128906 897.400390625 1349.12011719 939.120117188 c 1
 1459.20019531 1049.20019531 l 1
 1514.203125 993.87109375 1558.5234375 928.635742188 1589.75976562 855.919921875 c 0
 1620.89550781 783.555664062 1638.14453125 703.83203125 1638.14453125 620.111328125 c 0
 1638.14453125 618.182617188 1638.41796875 615.924804688 1638.40039062 614 c 0
 1638.41113281 612.490234375 1638.41699219 610.979492188 1638.41699219 609.466796875 c 0
 1638.41699219 526.184570312 1620.88183594 446.544921875 1589.75976562 374.639648438 c 0
 1558.13964844 301.383789062 1513.87988281 235.358398438 1459.20019531 178.799804688 c 1
1748.48046875 -110.48046875 m 1
 1638.40039062 -0.400390625 l 1
 1716.97753906 78.4013671875 1780.38671875 171.256835938 1825.28027344 274.799804688 c 0
 1869.50195312 376.55078125 1894.02539062 488.809570312 1894.02539062 606.750976562 c 0
 1894.02539062 609.001953125 1894.41796875 611.752929688 1894.40039062 614 c 0
 1894.421875 616.502929688 1894.43261719 619.0078125 1894.43261719 621.515625 c 0
 1894.43261719 738.625 1869.98730469 850.630859375 1826.55957031 951.919921875 c 0
 1781.51855469 1056.0859375 1717.6484375 1149.40332031 1638.40039062 1228.40039062 c 1
 1748.48046875 1338.48046875 l 1
 1840.4609375 1244.64355469 1914.71777344 1134.53320312 1967.36035156 1012.08007812 c 0
 2018.96386719 892.331054688 2047.55761719 760.374023438 2047.55761719 621.791015625 c 0
 2047.55761719 619.389648438 2048.01757812 616.397460938 2048 614 c 0
 2048.01757812 611.602539062 2048.02539062 609.203125 2048.02539062 606.801757812 c 0
 2048.02539062 468.21875 2018.96386719 335.668945312 1967.36035156 215.919921875 c 0
 1914.71777344 93.466796875 1840.4609375 -16.6435546875 1748.48046875 -110.48046875 c 1
EndSplineSet
EndChar

StartChar: uni0098
Encoding: 152 152 170
Width: 2048
Flags: H
LayerCount: 2
Fore
SplineSet
1485.90429688 52 m 0
 1175.77246094 52.052734375 924.001953125 303.856445312 924.001953125 614 c 0
 924.001953125 924.17578125 1175.82519531 1176 1486.00195312 1176 c 0
 1796.14550781 1176 2047.94726562 924.227539062 2048 614.095703125 c 0
 2047.8671875 303.927734375 1796.07226562 52.1328125 1485.90429688 52 c 0
982.143554688 181.232421875 m 1
 949.036132812 173.280273438 914.478515625 169.068359375 878.946289062 169.068359375 c 0
 878.841796875 169.068359375 878.96875 169.040039062 878.864257812 169.040039062 c 0
 877.956054688 169.034179688 877.047851562 169.032226562 876.138671875 169.032226562 c 0
 629.401367188 169.032226562 429.083007812 369.350585938 429.083007812 616.087890625 c 0
 429.083007812 862.825195312 629.401367188 1063.14355469 876.138671875 1063.14355469 c 0
 877.047851562 1063.14355469 877.956054688 1063.14160156 878.864257812 1063.13574219 c 0
 879.1875 1063.13671875 879.510742188 1063.13671875 879.833984375 1063.13671875 c 0
 916.53125 1063.13671875 951.969726562 1058.609375 986.064453125 1050.14355469 c 1
 859.165039062 947.141601562 778.012695312 789.928710938 778.012695312 613.911132812 c 0
 778.012695312 439.760742188 857.4765625 284.387695312 982.064453125 181.34375 c 2
 982.143554688 181.232421875 l 1
463.583984375 259.744140625 m 2
 432.158203125 250.796875 398.98828125 246.005859375 364.708984375 246.005859375 c 0
 364.625 246.005859375 364.612304688 245.952148438 364.528320312 245.952148438 c 0
 163.447265625 246.078125 0.234375 409.369140625 0.234375 610.479492188 c 0
 0.234375 811.66796875 163.573242188 975.0078125 364.76171875 975.0078125 c 0
 395.184570312 975.0078125 424.57421875 971.244140625 452.83203125 964.208007812 c 1
 351.094726562 882.267578125 285.954101562 756.6875 285.954101562 616.012695312 c 0
 285.954101562 470.395507812 355.694335938 341.321289062 463.631835938 259.711914062 c 1
 463.583984375 259.744140625 l 2
EndSplineSet
EndChar

StartChar: uni0099
Encoding: 153 153 171
Width: 2048
Flags: H
LayerCount: 2
Fore
SplineSet
1024 218.3515625 m 0
 1023.22070312 218.34765625 1022.48535156 218.301757812 1021.70507812 218.301757812 c 0
 804.612304688 218.301757812 628.361328125 394.552734375 628.361328125 611.645507812 c 0
 628.361328125 612.430664062 628.36328125 613.215820312 628.368164062 614 c 0
 628.36328125 614.779296875 628.317382812 615.514648438 628.317382812 616.294921875 c 0
 628.317382812 833.387695312 804.569335938 1009.63867188 1021.66113281 1009.63867188 c 0
 1022.44140625 1009.63867188 1023.22070312 1009.63671875 1024 1009.63183594 c 0
 1024.77929688 1009.63671875 1025.51464844 1009.68261719 1026.29492188 1009.68261719 c 0
 1243.38769531 1009.68261719 1419.63867188 833.430664062 1419.63867188 616.338867188 c 0
 1419.63867188 615.55859375 1419.63671875 614.779296875 1419.63183594 614 c 0
 1419.63671875 613.215820312 1419.68261719 612.474609375 1419.68261719 611.689453125 c 0
 1419.68261719 394.596679688 1243.43066406 218.344726562 1026.33886719 218.344726562 c 0
 1025.55859375 218.344726562 1024.77929688 218.34765625 1024 218.3515625 c 0
1024 353.328125 m 2
 1024 353.34375 l 1
 1024.8125 353.336914062 1025.58105469 353.288085938 1026.39550781 353.288085938 c 0
 1168.93945312 353.288085938 1284.66699219 469.015625 1284.66699219 611.560546875 c 0
 1284.66699219 612.374023438 1284.66308594 613.1875 1284.65625 614 c 0
 1284.66308594 614.8125 1284.71191406 615.581054688 1284.71191406 616.395507812 c 0
 1284.71191406 758.939453125 1168.984375 874.666992188 1026.43945312 874.666992188 c 0
 1025.62597656 874.666992188 1024.8125 874.663085938 1024 874.65625 c 0
 1023.1875 874.663085938 1022.41894531 874.711914062 1021.60449219 874.711914062 c 0
 879.060546875 874.711914062 763.333007812 758.984375 763.333007812 616.439453125 c 0
 763.333007812 615.625976562 763.336914062 614.8125 763.34375 614 c 0
 763.3359375 613.182617188 763.288085938 612.408203125 763.288085938 611.588867188 c 0
 763.288085938 469.044921875 879.015625 353.31640625 1021.55957031 353.31640625 c 0
 1022.37402344 353.31640625 1023.1875 353.3203125 1024 353.328125 c 2
1024 -84.1923828125 m 0
 1020.72949219 -84.22265625 1017.45507812 -84.2373046875 1014.17773438 -84.2373046875 c 0
 789.239257812 -84.2373046875 580.047851562 -12.31640625 409.599609375 108.975585938 c 0
 229.037109375 235.020507812 87.0791015625 408.90625 0 614 c 1
 87.0810546875 819.087890625 229.0390625 992.967773438 409.599609375 1119.0078125 c 0
 580.047851562 1240.30078125 788.451171875 1311.65722656 1013.38964844 1311.65722656 c 0
 1016.66699219 1311.65722656 1020.72949219 1312.20605469 1024 1312.17578125 c 0
 1027.27050781 1312.20605469 1030.54492188 1312.22167969 1033.82226562 1312.22167969 c 0
 1258.76074219 1312.22167969 1467.95214844 1240.30078125 1638.40039062 1119.0078125 c 0
 1818.9609375 992.967773438 1960.91894531 819.087890625 2048 614 c 1
 1960.92089844 408.90625 1818.96289062 235.020507812 1638.40039062 108.975585938 c 0
 1467.95214844 -12.31640625 1259.54882812 -83.6728515625 1034.61035156 -83.6728515625 c 0
 1031.33300781 -83.6728515625 1027.27050781 -84.22265625 1024 -84.1923828125 c 0
1024 614 m 1024
1024 55.4560546875 m 0
 1025.98925781 55.443359375 1027.97949219 55.4375 1029.97167969 55.4375 c 0
 1218.46484375 55.4375 1394.86914062 111.853515625 1541.82421875 207.887695312 c 0
 1697.05273438 307.030273438 1821.24121094 446.77734375 1901.39160156 614 c 1
 1821.23925781 781.216796875 1697.05078125 920.958007812 1541.82421875 1020.09570312 c 0
 1394.86425781 1116.140625 1219.30273438 1171.9921875 1030.79882812 1171.9921875 c 0
 1028.81542969 1171.9921875 1025.98046875 1172.55664062 1024 1172.54394531 c 0
 1022.01074219 1172.55664062 1020.02050781 1172.5625 1018.02832031 1172.5625 c 0
 829.53515625 1172.5625 653.130859375 1116.14648438 506.17578125 1020.11230469 c 0
 350.60546875 920.59375 225.802734375 781.015625 144.288085938 614 c 1
 225.803710938 446.985351562 350.60546875 307.40625 506.17578125 207.887695312 c 0
 653.130859375 111.853515625 828.68359375 56.0078125 1017.17675781 56.0078125 c 0
 1019.16894531 56.0078125 1022.01074219 55.443359375 1024 55.4560546875 c 0
EndSplineSet
EndChar

StartChar: uni009A
Encoding: 154 154 172
Width: 2048
Flags: H
LayerCount: 2
Fore
SplineSet
460.799804688 -182.448242188 m 1
 0 278.3515625 l 1
 460.799804688 739.15234375 l 1
 580.272460938 619.6796875 l 1
 324.272460938 363.6796875 l 1
 1137.77636719 363.6796875 l 1
 1137.77636719 193.024414062 l 1
 324.272460938 193.024414062 l 1
 580.272460938 -62.9755859375 l 1
 460.799804688 -182.448242188 l 1
1393.77636719 193.024414062 m 0
 1347.21289062 194.16015625 1309.58398438 231.788085938 1308.44824219 278.3515625 c 0
 1308.42675781 279.109375 1308.41601562 279.870117188 1308.41601562 280.631835938 c 0
 1308.41601562 303.881835938 1318.26660156 324.801757812 1334.04785156 339.50390625 c 0
 1349.2578125 354.458984375 1370.11230469 363.690429688 1393.10644531 363.690429688 c 0
 1393.32910156 363.690429688 1393.55371094 363.681640625 1393.77636719 363.6796875 c 0
 1394.67578125 363.708984375 1395.57910156 363.723632812 1396.48632812 363.723632812 c 0
 1442.13183594 363.723632812 1479.19042969 326.665039062 1479.19042969 281.01953125 c 0
 1479.19042969 280.112304688 1479.1328125 279.251953125 1479.10351562 278.3515625 c 0
 1479.10546875 278.129882812 1479.10644531 277.908203125 1479.10644531 277.685546875 c 0
 1479.10644531 254.69140625 1469.88378906 233.833007812 1454.92773438 218.624023438 c 0
 1440.22558594 202.841796875 1419.26464844 192.966796875 1396.015625 192.966796875 c 0
 1395.25292969 192.966796875 1394.53320312 193.002929688 1393.77636719 193.024414062 c 0
1735.10351562 193.024414062 m 0
 1688.54003906 194.16015625 1650.91210938 231.788085938 1649.77636719 278.3515625 c 0
 1649.75488281 279.109375 1649.74414062 279.870117188 1649.74414062 280.631835938 c 0
 1649.74414062 303.881835938 1659.59375 324.801757812 1675.37597656 339.50390625 c 0
 1690.58496094 354.458984375 1711.44042969 363.690429688 1734.43457031 363.690429688 c 0
 1734.65722656 363.690429688 1734.88183594 363.681640625 1735.10351562 363.6796875 c 0
 1736.00390625 363.708984375 1736.90722656 363.723632812 1737.81445312 363.723632812 c 0
 1783.45996094 363.723632812 1820.51855469 326.665039062 1820.51855469 281.01953125 c 0
 1820.51855469 280.112304688 1820.4609375 279.251953125 1820.43164062 278.3515625 c 0
 1820.43359375 278.129882812 1820.43457031 277.908203125 1820.43457031 277.685546875 c 0
 1820.43457031 254.69140625 1811.2109375 233.833007812 1796.25585938 218.624023438 c 0
 1781.55371094 202.841796875 1760.59277344 192.966796875 1737.34375 192.966796875 c 0
 1736.58105469 192.966796875 1735.86132812 193.002929688 1735.10351562 193.024414062 c 0
1587.20019531 716.400390625 m 1
 1467.72753906 835.872070312 l 1
 1723.72753906 1091.87207031 l 1
 910.223632812 1091.87207031 l 1
 910.223632812 1262.52832031 l 1
 1723.72753906 1262.52832031 l 1
 1467.72753906 1518.52832031 l 1
 1587.20019531 1638 l 1
 2048 1177.20019531 l 1
 1587.20019531 716.400390625 l 1
312.896484375 1091.87207031 m 0
 266.325195312 1093 228.688476562 1130.63085938 227.551757812 1177.20019531 c 0
 227.53125 1177.95800781 227.520507812 1178.71777344 227.520507812 1179.48046875 c 0
 227.520507812 1202.72949219 237.370117188 1223.64941406 253.15234375 1238.3515625 c 0
 268.361328125 1253.30761719 289.216796875 1262.53808594 312.2109375 1262.53808594 c 0
 312.432617188 1262.53808594 312.658203125 1262.52929688 312.879882812 1262.52832031 c 0
 313.78515625 1262.55761719 314.694335938 1262.57226562 315.606445312 1262.57226562 c 0
 361.251953125 1262.57226562 398.310546875 1225.51367188 398.310546875 1179.86816406 c 0
 398.310546875 1178.9609375 398.252929688 1178.09960938 398.223632812 1177.20019531 c 0
 398.225585938 1176.97851562 398.2265625 1176.75585938 398.2265625 1176.53417969 c 0
 398.2265625 1153.54003906 389.002929688 1132.68164062 374.047851562 1117.47167969 c 0
 359.345703125 1101.69042969 338.384765625 1091.81445312 315.135742188 1091.81445312 c 0
 314.373046875 1091.81445312 313.653320312 1091.85058594 312.896484375 1091.87207031 c 0
654.223632812 1091.87207031 m 0
 607.66015625 1093.0078125 570.032226562 1130.63671875 568.896484375 1177.20019531 c 0
 568.875 1177.95800781 568.864257812 1178.71777344 568.864257812 1179.48046875 c 0
 568.864257812 1202.72949219 578.713867188 1223.64941406 594.49609375 1238.3515625 c 0
 609.705078125 1253.30761719 630.560546875 1262.53808594 653.5546875 1262.53808594 c 0
 653.77734375 1262.53808594 654.001953125 1262.52929688 654.223632812 1262.52832031 c 0
 655.124023438 1262.55664062 656.02734375 1262.57128906 656.934570312 1262.57128906 c 0
 702.580078125 1262.57128906 739.638671875 1225.51367188 739.638671875 1179.8671875 c 0
 739.638671875 1178.9609375 739.581054688 1178.09960938 739.551757812 1177.20019531 c 0
 739.553710938 1176.97851562 739.5546875 1176.75585938 739.5546875 1176.53417969 c 0
 739.5546875 1153.54003906 730.331054688 1132.68164062 715.375976562 1117.47167969 c 0
 700.673828125 1101.69042969 679.712890625 1091.81445312 656.462890625 1091.81445312 c 0
 655.701171875 1091.81445312 654.981445312 1091.85058594 654.223632812 1091.87207031 c 0
EndSplineSet
EndChar

StartChar: uni009B
Encoding: 155 155 173
Width: 2048
Flags: H
LayerCount: 2
Fore
SplineSet
921.120117188 -384.288085938 m 1
 213.791992188 30.4638671875 l 2
 184.393554688 46.96484375 160.509765625 71.388671875 144.671875 101.200195312 c 0
 129.370117188 129.571289062 120.682617188 162.02734375 120.682617188 196.49609375 c 0
 120.682617188 196.81640625 120.55859375 197.328125 120.559570312 197.6484375 c 2
 120.559570312 1023.91992188 l 2
 120.55859375 1024.21289062 120.55859375 1024.50683594 120.55859375 1024.79980469 c 0
 120.55859375 1059.26855469 129.370117188 1091.91699219 144.671875 1120.28808594 c 0
 160.509765625 1150.09960938 184.393554688 1174.5234375 213.791992188 1191.02441406 c 2
 924.3359375 1612.27246094 l 2
 953.825195312 1628.57714844 987.728515625 1637.86132812 1023.78222656 1637.86132812 c 0
 1059.8359375 1637.86132812 1094.17480469 1628.57714844 1123.6640625 1612.27246094 c 2
 1834.19238281 1191.10351562 l 2
 1863.59082031 1174.60351562 1887.47363281 1150.1796875 1903.31152344 1120.36816406 c 0
 1918.61425781 1091.99707031 1927.30175781 1059.54101562 1927.30175781 1025.07226562 c 0
 1927.30175781 1024.75195312 1927.42578125 1024.24023438 1927.42382812 1023.91992188 c 2
 1927.42382812 197.6484375 l 2
 1927.42480469 197.432617188 1927.42480469 197.216796875 1927.42480469 197.000976562 c 0
 1927.42480469 162.18359375 1917.98046875 129.333984375 1901.69628906 101.200195312 c 0
 1884.93652344 71.5400390625 1860.62011719 47.2236328125 1830.95996094 30.4638671875 c 2
 1114 -384.288085938 l 2
 1085.63867188 -400.572265625 1052.77441406 -409.88671875 1017.75097656 -409.88671875 c 0
 982.728515625 -409.88671875 949.450195312 -400.572265625 921.087890625 -384.288085938 c 1
 921.120117188 -384.288085938 l 1
927.51953125 -162.448242188 m 1
 927.51953125 557.727539062 l 1
 316.65625 908.127929688 l 1
 316.65625 204.032226562 l 1
 927.51953125 -162.448242188 l 1
1120.43164062 -162.448242188 m 1
 1734.51171875 204.064453125 l 1
 1734.51171875 908.17578125 l 1
 1120.43164062 557.776367188 l 1
 1120.43164062 -162.448242188 l 1
1024 731.34375 m 1
 1634.86425781 1084.94433594 l 1
 1024 1435.48828125 l 1
 413.135742188 1085.08789062 l 1
 1024 731.34375 l 1
1024 650.959960938 m 1024
1024 731.34375 m 1024
1120.44824219 557.727539062 m 1024
927.536132812 557.727539062 m 1024
EndSplineSet
EndChar

